<svg width="654" height="3025" viewBox="0 0 654 3025" fill="none" xmlns="http://www.w3.org/2000/svg">
<circle cx="38" cy="2931" r="10" fill="#599CFF" fill-opacity="0.7"/>
<circle cx="104" cy="2931" r="10" fill="#599CFF" fill-opacity="0.7"/>
<circle cx="171" cy="2931" r="10" fill="#599CFF" fill-opacity="0.7"/>
<circle cx="171" cy="3015" r="10" fill="#599CFF" fill-opacity="0.7"/>
<circle cx="211" cy="2975" r="10" fill="#599CFF" fill-opacity="0.7"/>
<circle cx="144" cy="2975" r="10" fill="#599CFF" fill-opacity="0.7"/>
<circle cx="77" cy="2975" r="10" fill="#599CFF" fill-opacity="0.7"/>
<circle cx="104" cy="3015" r="10" fill="#599CFF" fill-opacity="0.7"/>
<circle cx="38" cy="3015" r="10" fill="#599CFF" fill-opacity="0.7"/>
<circle cx="10" cy="2975" r="10" fill="#599CFF" fill-opacity="0.7"/>
<circle cx="38" cy="2846" r="10" fill="#599CFF" fill-opacity="0.7"/>
<circle cx="104" cy="2846" r="10" fill="#599CFF" fill-opacity="0.7"/>
<circle cx="171" cy="2846" r="10" fill="#599CFF" fill-opacity="0.7"/>
<circle cx="171" cy="2930" r="10" fill="#599CFF" fill-opacity="0.7"/>
<circle cx="211" cy="2890" r="10" fill="#599CFF" fill-opacity="0.7"/>
<circle cx="144" cy="2890" r="10" fill="#599CFF" fill-opacity="0.7"/>
<circle cx="77" cy="2890" r="10" fill="#599CFF" fill-opacity="0.7"/>
<circle cx="104" cy="2930" r="10" fill="#599CFF" fill-opacity="0.7"/>
<circle cx="38" cy="2930" r="10" fill="#599CFF" fill-opacity="0.7"/>
<circle cx="10" cy="2890" r="10" fill="#599CFF" fill-opacity="0.7"/>
<circle cx="268" cy="2888" r="10" fill="#599CFF" fill-opacity="0.7"/>
<circle cx="334" cy="2888" r="10" fill="#599CFF" fill-opacity="0.7"/>
<circle cx="401" cy="2888" r="10" fill="#599CFF" fill-opacity="0.7"/>
<circle cx="401" cy="2972" r="10" fill="#599CFF" fill-opacity="0.7"/>
<circle cx="441" cy="2932" r="10" fill="#599CFF" fill-opacity="0.7"/>
<circle cx="374" cy="2932" r="10" fill="#599CFF" fill-opacity="0.7"/>
<circle cx="307" cy="2932" r="10" fill="#599CFF" fill-opacity="0.7"/>
<circle cx="334" cy="2972" r="10" fill="#599CFF" fill-opacity="0.7"/>
<circle cx="268" cy="2972" r="10" fill="#599CFF" fill-opacity="0.7"/>
<circle cx="240" cy="2932" r="10" fill="#599CFF" fill-opacity="0.7"/>
<circle cx="268" cy="2804" r="10" fill="#599CFF" fill-opacity="0.7"/>
<circle cx="334" cy="2804" r="10" fill="#599CFF" fill-opacity="0.7"/>
<circle cx="401" cy="2804" r="10" fill="#599CFF" fill-opacity="0.7"/>
<circle cx="401" cy="2888" r="10" fill="#599CFF" fill-opacity="0.7"/>
<circle cx="441" cy="2848" r="10" fill="#599CFF" fill-opacity="0.7"/>
<circle cx="374" cy="2848" r="10" fill="#599CFF" fill-opacity="0.7"/>
<circle cx="307" cy="2848" r="10" fill="#599CFF" fill-opacity="0.7"/>
<circle cx="334" cy="2888" r="10" fill="#599CFF" fill-opacity="0.7"/>
<circle cx="268" cy="2888" r="10" fill="#599CFF" fill-opacity="0.7"/>
<circle cx="240" cy="2848" r="10" fill="#599CFF" fill-opacity="0.7"/>
<g opacity="0.8">
<line x1="432.5" y1="2689.05" x2="429.5" y2="2198.05" stroke="black" stroke-width="15"/>
<line x1="493.5" y1="2624.05" x2="490.5" y2="2133.05" stroke="black" stroke-width="15"/>
<line x1="616.5" y1="2505.05" x2="613.5" y2="2014.05" stroke="#FFD83B" stroke-width="15"/>
<line x1="557.5" y1="2558.05" x2="554.5" y2="2067.05" stroke="#599CFF" stroke-width="15"/>
</g>
<g filter="url(#filter0_d)">
<path opacity="0.8" d="M615.967 2388.71L615.505 2364.42C615.426 2360.72 611.557 2358.75 608.523 2360.89L588.656 2374.9C585.623 2377.04 585.711 2381.68 588.812 2383.25L609.156 2393.52C612.246 2395.09 616.039 2392.42 615.967 2388.71Z" fill="#599CFF"/>
<path opacity="0.8" d="M580.719 2414.74L580.261 2390.46C580.189 2386.75 576.313 2384.79 573.275 2386.93L553.409 2400.94C550.375 2403.08 550.463 2407.71 553.569 2409.28L573.893 2419.56C576.983 2421.13 580.775 2418.45 580.719 2414.74Z" fill="#599CFF"/>
<path opacity="0.8" d="M621.34 2535.94L620.879 2511.66C620.807 2507.95 616.93 2505.99 613.893 2508.13L594.026 2522.14C590.993 2524.27 591.081 2528.91 594.186 2530.48L614.529 2540.76C617.627 2542.31 621.408 2539.64 621.34 2535.94Z" fill="#599CFF"/>
<path opacity="0.8" d="M619.544 2489.74L619.083 2465.46C619.011 2461.75 615.134 2459.78 612.101 2461.92L592.234 2475.93C589.197 2478.08 589.285 2482.71 592.39 2484.28L612.733 2494.56C615.838 2496.12 619.631 2493.45 619.544 2489.74Z" fill="#599CFF"/>
<path opacity="0.8" d="M617.664 2437.93L617.202 2413.64C617.131 2409.94 613.254 2407.97 610.22 2410.11L590.353 2424.12C587.316 2426.26 587.404 2430.9 590.51 2432.47L610.853 2442.74C613.958 2444.31 617.751 2441.64 617.664 2437.93Z" fill="#599CFF"/>
<path opacity="0.8" d="M547.314 2496.05L546.852 2471.77C546.781 2468.06 542.904 2466.1 539.867 2468.24L520 2482.25C516.967 2484.39 517.055 2489.02 520.16 2490.59L540.503 2500.87C543.6 2502.43 547.382 2499.76 547.314 2496.05Z" fill="#599CFF"/>
<path opacity="0.8" d="M545.619 2445.57L545.158 2421.28C545.086 2417.58 541.209 2415.61 538.172 2417.75L518.305 2431.76C515.272 2433.91 515.36 2438.54 518.465 2440.11L538.808 2450.38C541.893 2451.92 545.686 2449.26 545.619 2445.57Z" fill="#599CFF"/>
<path opacity="0.8" d="M584.52 2516.19L584.059 2491.9C583.987 2488.19 580.11 2486.23 577.073 2488.37L557.206 2502.38C554.173 2504.52 554.261 2509.16 557.366 2510.73L577.709 2521C580.807 2522.57 584.588 2519.89 584.52 2516.19Z" fill="#599CFF"/>
<path opacity="0.8" d="M582.316 2465.71L581.854 2441.42C581.783 2437.71 577.906 2435.75 574.869 2437.89L555.002 2451.9C551.968 2454.04 552.056 2458.68 555.161 2460.25L575.505 2470.53C578.602 2472.09 582.384 2469.42 582.316 2465.71Z" fill="#599CFF"/>
<path opacity="0.8" d="M514.34 2473.1L514.629 2448.76C514.675 2445.05 510.865 2442.93 507.772 2444.95L487.526 2458.19C484.433 2460.21 484.378 2464.86 487.426 2466.55L507.389 2477.63C510.438 2479.35 514.303 2476.82 514.34 2473.1Z" fill="#599CFF"/>
<path opacity="0.8" d="M589.325 2554.52L589.786 2578.8C589.854 2582.51 593.735 2584.47 596.768 2582.34L616.635 2568.33C619.668 2566.19 619.58 2561.56 616.479 2559.98L596.136 2549.71C593.045 2548.14 589.253 2550.81 589.325 2554.52Z" fill="#599CFF"/>
<path opacity="0.8" d="M522.709 2606.01L523.17 2630.29C523.238 2634 527.119 2635.97 530.152 2633.83L550.019 2619.82C553.053 2617.68 552.965 2613.04 549.863 2611.47L529.52 2601.19C526.43 2599.63 522.637 2602.3 522.709 2606.01Z" fill="#599CFF"/>
<path opacity="0.8" d="M521.135 2562.65L521.597 2586.94C521.665 2590.64 525.545 2592.61 528.579 2590.47L548.446 2576.46C551.479 2574.32 551.391 2569.69 548.289 2568.11L527.946 2557.84C524.856 2556.27 521.064 2558.94 521.135 2562.65Z" fill="#599CFF"/>
<path opacity="0.8" d="M518.291 2515.06L518.752 2539.34C518.82 2543.05 522.701 2545.01 525.735 2542.88L545.601 2528.87C548.635 2526.73 548.547 2522.09 545.445 2520.52L525.102 2510.24C522.012 2508.68 518.219 2511.35 518.291 2515.06Z" fill="#599CFF"/>
<path opacity="0.8" d="M557.477 2579.49L557.939 2603.77C558.007 2607.48 561.887 2609.44 564.921 2607.3L584.787 2593.29C587.821 2591.15 587.733 2586.52 584.631 2584.95L564.288 2574.67C561.198 2573.1 557.405 2575.78 557.477 2579.49Z" fill="#599CFF"/>
<path opacity="0.8" d="M554.372 2534.96L554.834 2559.24C554.902 2562.95 558.782 2564.91 561.816 2562.77L581.683 2548.76C584.716 2546.62 584.628 2541.99 581.526 2540.42L561.183 2530.14C558.093 2528.58 554.3 2531.25 554.372 2534.96Z" fill="#599CFF"/>
<path opacity="0.8" d="M487.878 2630.8L488.339 2655.09C488.407 2658.79 492.288 2660.76 495.321 2658.62L515.188 2644.61C518.221 2642.47 518.133 2637.83 515.032 2636.26L494.689 2625.99C491.599 2624.42 487.806 2627.09 487.878 2630.8Z" fill="#599CFF"/>
<path opacity="0.8" d="M486.21 2584.84L486.671 2609.13C486.739 2612.83 490.62 2614.8 493.653 2612.66L513.52 2598.65C516.553 2596.51 516.465 2591.88 513.364 2590.3L493.021 2580.03C489.931 2578.46 486.138 2581.13 486.21 2584.84Z" fill="#599CFF"/>
<path opacity="0.8" d="M485.686 2539.66L486.147 2563.94C486.216 2567.65 490.096 2569.61 493.13 2567.47L512.996 2553.46C516.03 2551.32 515.942 2546.69 512.84 2545.12L492.497 2534.84C489.407 2533.27 485.614 2535.95 485.686 2539.66Z" fill="#599CFF"/>
<path opacity="0.8" d="M482.842 2492.06L483.303 2516.35C483.371 2520.05 487.252 2522.02 490.285 2519.88L510.152 2505.87C513.185 2503.73 513.098 2499.09 509.996 2497.52L489.653 2487.24C486.563 2485.68 482.77 2488.35 482.842 2492.06Z" fill="#599CFF"/>
<path opacity="0.8" d="M603.154 2163.35L602.361 2139.12C602.23 2135.42 598.328 2133.54 595.319 2135.74L575.61 2150.12C572.601 2152.32 572.753 2156.94 575.881 2158.45L596.398 2168.29C599.515 2169.8 603.277 2167.05 603.154 2163.35Z" fill="#599CFF"/>
<path opacity="0.8" d="M568.269 2190.03L567.479 2165.8C567.356 2162.1 563.446 2160.22 560.433 2162.42L540.725 2176.8C537.716 2179 537.867 2183.62 540.999 2185.13L561.498 2194.98C564.614 2196.48 568.376 2193.73 568.269 2190.03Z" fill="#599CFF"/>
<path opacity="0.8" d="M610.67 2310.38L609.876 2286.15C609.753 2282.45 605.843 2280.57 602.83 2282.76L583.122 2297.15C580.113 2299.34 580.264 2303.97 583.396 2305.47L603.913 2315.32C607.037 2316.81 610.788 2314.07 610.67 2310.38Z" fill="#599CFF"/>
<path opacity="0.8" d="M608.201 2264.24L607.408 2240.01C607.285 2236.31 603.375 2234.43 600.366 2236.63L580.657 2251.01C577.645 2253.21 577.796 2257.84 580.928 2259.34L601.445 2269.19C604.577 2270.68 608.339 2267.94 608.201 2264.24Z" fill="#599CFF"/>
<path opacity="0.8" d="M605.567 2212.5L604.774 2188.27C604.651 2184.58 600.741 2182.69 597.732 2184.89L578.023 2199.27C575.01 2201.47 575.162 2206.1 578.294 2207.6L598.811 2217.45C601.943 2218.95 605.705 2216.2 605.567 2212.5Z" fill="#599CFF"/>
<path opacity="0.8" d="M536.03 2271.92L535.237 2247.69C535.114 2243.99 531.204 2242.11 528.191 2244.3L508.482 2258.69C505.473 2260.89 505.625 2265.51 508.757 2267.01L529.274 2276.86C532.398 2278.36 536.149 2275.62 536.03 2271.92Z" fill="#599CFF"/>
<path opacity="0.8" d="M533.601 2221.5L532.808 2197.27C532.685 2193.57 528.775 2191.69 525.762 2193.89L506.054 2208.27C503.045 2210.47 503.196 2215.1 506.328 2216.6L526.845 2226.45C529.956 2227.91 533.72 2225.19 533.601 2221.5Z" fill="#599CFF"/>
<path opacity="0.8" d="M573.546 2291.33L572.752 2267.1C572.629 2263.4 568.719 2261.52 565.706 2263.72L545.998 2278.1C542.989 2280.3 543.14 2284.92 546.272 2286.43L566.79 2296.28C569.914 2297.78 573.665 2295.03 573.546 2291.33Z" fill="#599CFF"/>
<path opacity="0.8" d="M570.607 2240.93L569.813 2216.7C569.691 2213 565.781 2211.12 562.768 2213.32L543.059 2227.7C540.05 2229.9 540.201 2234.52 543.333 2236.03L563.851 2245.88C566.975 2247.38 570.726 2244.63 570.607 2240.93Z" fill="#599CFF"/>
<path opacity="0.8" d="M502.707 2249.6L502.665 2225.31C502.659 2221.6 498.815 2219.56 495.745 2221.64L475.646 2235.27C472.575 2237.34 472.583 2241.98 475.659 2243.61L495.807 2254.27C498.884 2255.92 502.721 2253.31 502.707 2249.6Z" fill="#599CFF"/>
<path opacity="0.8" d="M578.892 2329.61L579.686 2353.84C579.805 2357.53 583.719 2359.42 586.728 2357.22L606.437 2342.84C609.446 2340.65 609.294 2336.02 606.166 2334.52L585.649 2324.67C582.532 2323.16 578.77 2325.91 578.892 2329.61Z" fill="#599CFF"/>
<path opacity="0.8" d="M512.995 2382.32L513.789 2406.55C513.908 2410.25 517.822 2412.13 520.831 2409.94L540.539 2395.55C543.548 2393.36 543.397 2388.73 540.269 2387.23L519.751 2377.38C516.635 2375.88 512.872 2378.62 512.995 2382.32Z" fill="#599CFF"/>
<path opacity="0.8" d="M510.791 2339.03L511.584 2363.26C511.703 2366.95 515.617 2368.84 518.626 2366.64L538.335 2352.26C541.344 2350.06 541.193 2345.44 538.065 2343.93L517.547 2334.08C514.43 2332.58 510.668 2335.33 510.791 2339.03Z" fill="#599CFF"/>
<path opacity="0.8" d="M507.254 2291.52L508.048 2315.75C508.166 2319.45 512.08 2321.33 515.09 2319.13L534.798 2304.75C537.807 2302.55 537.656 2297.93 534.528 2296.42L514.01 2286.58C510.894 2285.08 507.131 2287.82 507.254 2291.52Z" fill="#599CFF"/>
<path opacity="0.8" d="M547.394 2355.16L548.187 2379.39C548.306 2383.09 552.22 2384.97 555.229 2382.77L574.938 2368.39C577.947 2366.19 577.796 2361.57 574.667 2360.06L554.15 2350.21C551.033 2348.71 547.271 2351.46 547.394 2355.16Z" fill="#599CFF"/>
<path opacity="0.8" d="M543.64 2310.72L544.434 2334.95C544.553 2338.65 548.467 2340.53 551.476 2338.33L571.184 2323.95C574.193 2321.76 574.042 2317.13 570.914 2315.62L550.396 2305.78C547.28 2304.28 543.517 2307.02 543.64 2310.72Z" fill="#599CFF"/>
<path opacity="0.8" d="M478.508 2407.76L479.302 2431.98C479.421 2435.68 483.335 2437.56 486.344 2435.37L506.052 2420.99C509.062 2418.79 508.91 2414.16 505.782 2412.66L485.265 2402.81C482.148 2401.31 478.386 2404.05 478.508 2407.76Z" fill="#599CFF"/>
<path opacity="0.8" d="M476.172 2361.86L476.965 2386.09C477.084 2389.79 480.998 2391.67 484.007 2389.48L503.716 2375.09C506.725 2372.9 506.574 2368.27 503.446 2366.76L482.928 2356.92C479.812 2355.42 476.049 2358.16 476.172 2361.86Z" fill="#599CFF"/>
<path opacity="0.8" d="M474.992 2316.72L475.785 2340.94C475.904 2344.64 479.818 2346.53 482.827 2344.33L502.536 2329.95C505.545 2327.75 505.393 2323.13 502.265 2321.62L481.748 2311.77C478.631 2310.27 474.869 2313.01 474.992 2316.72Z" fill="#599CFF"/>
<path opacity="0.8" d="M471.455 2269.21L472.248 2293.44C472.367 2297.14 476.281 2299.02 479.29 2296.82L498.999 2282.44C502.008 2280.24 501.856 2275.62 498.728 2274.11L478.211 2264.26C475.094 2262.76 471.332 2265.51 471.455 2269.21Z" fill="#599CFF"/>
</g>
<g clip-path="url(#clip0)">
<path d="M655.077 1327.43L569.094 1240.95L654.758 1205.48L655.077 1327.43Z" fill="#599CFF"/>
</g>
<g clip-path="url(#clip1)">
<path d="M655.077 1240.43L569.094 1153.95L654.758 1118.48L655.077 1240.43Z" fill="black"/>
</g>
<g clip-path="url(#clip2)">
<path d="M655.077 1151.43L569.094 1064.95L654.758 1029.48L655.077 1151.43Z" fill="#599CFF"/>
</g>
<g clip-path="url(#clip3)">
<ellipse cx="650.002" cy="580.5" rx="94.872" ry="94.5" fill="#FF8C40"/>
<path d="M754.314 582.5C754.314 639.281 708.284 685.31 651.504 685.31C594.723 685.31 548.694 639.281 548.694 582.5C548.694 525.719 594.723 479.69 651.504 479.69C708.284 479.69 754.314 525.719 754.314 582.5Z" stroke="black"/>
<path d="M761.37 581.996C761.37 642.951 711.955 692.366 651 692.366C590.045 692.366 540.63 642.951 540.63 581.996C540.63 521.041 590.045 471.626 651 471.626C711.955 471.626 761.37 521.041 761.37 581.996Z" stroke="black"/>
<circle cx="650.496" cy="582.5" r="117.929" stroke="black"/>
<circle cx="651.504" cy="582.5" r="127" stroke="black"/>
<g clip-path="url(#clip4)">
<circle cx="649.5" cy="584.5" r="101.25" stroke="black" stroke-width="2.5"/>
<circle cx="649" cy="584" r="108.75" stroke="black" stroke-width="2.5"/>
<circle cx="648.5" cy="584.5" r="116.25" stroke="black" stroke-width="2.5"/>
<circle cx="649.5" cy="584.5" r="125.25" stroke="black" stroke-width="2.5"/>
</g>
</g>
<circle cx="467" cy="110" r="10" fill="#599CFF"/>
<circle cx="533" cy="110" r="10" fill="#599CFF"/>
<circle cx="600" cy="110" r="10" fill="#599CFF"/>
<circle cx="600" cy="194" r="10" fill="#599CFF"/>
<circle cx="640" cy="154" r="10" fill="#599CFF"/>
<circle cx="573" cy="154" r="10" fill="#599CFF"/>
<circle cx="506" cy="154" r="10" fill="#599CFF"/>
<circle cx="533" cy="194" r="10" fill="#599CFF"/>
<circle cx="467" cy="194" r="10" fill="#599CFF"/>
<circle cx="439" cy="154" r="10" fill="#599CFF"/>
<rect x="462.633" y="48.3762" width="65" height="65" transform="rotate(-45 462.633 48.3762)" stroke="black" stroke-width="2"/>
<rect x="484.219" y="47.3762" width="67" height="67" transform="rotate(-45 484.219 47.3762)" fill="#FF8C40"/>
<g clip-path="url(#clip5)">
<line x1="554.293" y1="99.7492" x2="610.861" y2="43.1806" stroke="black" stroke-width="2"/>
<line x1="551.293" y1="90.7492" x2="607.861" y2="34.1806" stroke="black" stroke-width="2"/>
<line x1="547.293" y1="83.7492" x2="603.861" y2="27.1807" stroke="black" stroke-width="2"/>
<line x1="539.293" y1="79.7492" x2="595.861" y2="23.1807" stroke="black" stroke-width="2"/>
<line x1="533.293" y1="73.7492" x2="589.861" y2="17.1807" stroke="black" stroke-width="2"/>
<line x1="524.293" y1="71.7492" x2="580.861" y2="15.1806" stroke="black" stroke-width="2"/>
<line x1="518.293" y1="66.7492" x2="574.861" y2="10.1806" stroke="black" stroke-width="2"/>
<line x1="514.293" y1="59.7492" x2="570.861" y2="3.18065" stroke="black" stroke-width="2"/>
<line x1="508.293" y1="54.7492" x2="564.861" y2="-1.81935" stroke="black" stroke-width="2"/>
</g>
<defs>
<filter id="filter0_d" x="471.452" y="2134.8" width="153.89" height="528.703" filterUnits="userSpaceOnUse" color-interpolation-filters="sRGB">
<feFlood flood-opacity="0" result="BackgroundImageFix"/>
<feColorMatrix in="SourceAlpha" type="matrix" values="0 0 0 0 0 0 0 0 0 0 0 0 0 0 0 0 0 0 127 0"/>
<feOffset dx="2" dy="2"/>
<feGaussianBlur stdDeviation="1"/>
<feColorMatrix type="matrix" values="0 0 0 0 0 0 0 0 0 0 0 0 0 0 0 0 0 0 0.25 0"/>
<feBlend mode="normal" in2="BackgroundImageFix" result="effect1_dropShadow"/>
<feBlend mode="normal" in="SourceGraphic" in2="effect1_dropShadow" result="shape"/>
</filter>
<clipPath id="clip0">
<rect x="570" y="1242" width="84" height="89" fill="white"/>
</clipPath>
<clipPath id="clip1">
<rect x="570" y="1155" width="84" height="89" fill="white"/>
</clipPath>
<clipPath id="clip2">
<rect x="570" y="1066" width="84" height="89" fill="white"/>
</clipPath>
<clipPath id="clip3">
<rect x="523" y="455" width="128" height="259" fill="white"/>
</clipPath>
<clipPath id="clip4">
<rect x="523" y="571" width="140.551" height="143" fill="white"/>
</clipPath>
<clipPath id="clip5">
<rect x="514" y="47.4562" width="67" height="67" transform="rotate(-45 514 47.4562)" fill="white"/>
</clipPath>
</defs>
</svg>
