<svg width="212" height="389" viewBox="0 0 212 389" fill="none" xmlns="http://www.w3.org/2000/svg">
<g clip-path="url(#clip0)">
<rect width="9.41748" height="9.27158" transform="matrix(-0.73048 0.682934 -0.669537 -0.742778 6.2287 379.938)" fill="#FF8C40" fill-opacity="0.7"/>
<rect width="9.41748" height="9.27158" transform="matrix(-0.73048 0.682934 -0.669537 -0.742778 19.5427 367.49)" fill="#FF8C40" fill-opacity="0.7"/>
<rect width="9.41748" height="9.27158" transform="matrix(-0.73048 0.682934 -0.669537 -0.742778 6.41388 353.448)" fill="#FF8C40" fill-opacity="0.7"/>
<rect width="9.41748" height="9.27158" transform="matrix(-0.73048 0.682934 -0.669537 -0.742778 32.8566 355.043)" fill="#FF8C40" fill-opacity="0.7"/>
<rect width="9.41748" height="9.27158" transform="matrix(-0.73048 0.682934 -0.669537 -0.742778 19.7277 341)" fill="#FF8C40" fill-opacity="0.7"/>
<rect width="9.41748" height="9.27158" transform="matrix(-0.73048 0.682934 -0.669537 -0.742778 6.599 326.957)" fill="#FF8C40" fill-opacity="0.7"/>
<rect width="9.41748" height="9.27158" transform="matrix(-0.73048 0.682934 -0.669537 -0.742778 46.1706 342.596)" fill="#FF8C40" fill-opacity="0.7"/>
<rect width="9.41748" height="9.27158" transform="matrix(-0.73048 0.682934 -0.669537 -0.742778 33.0417 328.553)" fill="#FF8C40" fill-opacity="0.7"/>
<rect width="9.41748" height="9.27158" transform="matrix(-0.73048 0.682934 -0.669537 -0.742778 19.913 314.51)" fill="#FF8C40" fill-opacity="0.7"/>
<rect width="9.41748" height="9.27158" transform="matrix(-0.73048 0.682934 -0.669537 -0.742778 6.53668 300.203)" fill="#FF8C40" fill-opacity="0.7"/>
<rect width="9.41748" height="9.27158" transform="matrix(-0.73048 0.682934 -0.669537 -0.742778 59.4846 330.148)" fill="#FF8C40" fill-opacity="0.7"/>
<rect width="9.41748" height="9.27158" transform="matrix(-0.73048 0.682934 -0.669537 -0.742778 46.3558 316.105)" fill="#FF8C40" fill-opacity="0.7"/>
<rect width="9.41748" height="9.27158" transform="matrix(-0.73048 0.682934 -0.669537 -0.742778 33.2269 302.063)" fill="#FF8C40" fill-opacity="0.7"/>
<rect width="9.41748" height="9.27158" transform="matrix(-0.73048 0.682934 -0.669537 -0.742778 19.8507 287.755)" fill="#FF8C40" fill-opacity="0.7"/>
<rect width="9.41748" height="9.27158" transform="matrix(-0.73048 0.682934 -0.669537 -0.742778 6.44409 273.415)" fill="#FF8C40" fill-opacity="0.7"/>
<rect width="9.41748" height="9.27158" transform="matrix(-0.73048 0.682934 -0.669537 -0.742778 71.3778 319.126)" fill="#FF8C40" fill-opacity="0.7"/>
<rect width="9.41748" height="9.27158" transform="matrix(-0.73048 0.682934 -0.669537 -0.742778 58.249 305.083)" fill="#FF8C40" fill-opacity="0.7"/>
<rect width="9.41748" height="9.27158" transform="matrix(-0.73048 0.682934 -0.669537 -0.742778 45.1202 291.041)" fill="#FF8C40" fill-opacity="0.7"/>
<rect width="9.41748" height="9.27158" transform="matrix(-0.73048 0.682934 -0.669537 -0.742778 31.744 276.733)" fill="#FF8C40" fill-opacity="0.7"/>
<rect width="9.41748" height="9.27158" transform="matrix(-0.73048 0.682934 -0.669537 -0.742778 18.3373 262.393)" fill="#FF8C40" fill-opacity="0.7"/>
<rect width="9.41748" height="9.27158" transform="matrix(-0.73048 0.682934 -0.669537 -0.742778 84.6918 306.679)" fill="#FF8C40" fill-opacity="0.7"/>
<rect width="9.41748" height="9.27158" transform="matrix(-0.73048 0.682934 -0.669537 -0.742778 71.563 292.636)" fill="#FF8C40" fill-opacity="0.7"/>
<rect width="9.41748" height="9.27158" transform="matrix(-0.73048 0.682934 -0.669537 -0.742778 58.4342 278.593)" fill="#FF8C40" fill-opacity="0.7"/>
<rect width="9.41748" height="9.27158" transform="matrix(-0.73048 0.682934 -0.669537 -0.742778 45.0579 264.286)" fill="#FF8C40" fill-opacity="0.7"/>
<rect width="9.41748" height="9.27158" transform="matrix(-0.73048 0.682934 -0.669537 -0.742778 31.6513 249.946)" fill="#FF8C40" fill-opacity="0.7"/>
<rect width="9.41748" height="9.27158" transform="matrix(-0.73048 0.682934 -0.669537 -0.742778 98.0057 294.231)" fill="#FF8C40" fill-opacity="0.7"/>
<rect width="9.41748" height="9.27158" transform="matrix(-0.73048 0.682934 -0.669537 -0.742778 84.8768 280.189)" fill="#FF8C40" fill-opacity="0.7"/>
<rect width="9.41748" height="9.27158" transform="matrix(-0.73048 0.682934 -0.669537 -0.742778 71.7481 266.146)" fill="#FF8C40" fill-opacity="0.7"/>
<rect width="9.41748" height="9.27158" transform="matrix(-0.73048 0.682934 -0.669537 -0.742778 58.3718 251.838)" fill="#FF8C40" fill-opacity="0.7"/>
<rect width="9.41748" height="9.27158" transform="matrix(-0.73048 0.682934 -0.669537 -0.742778 44.9652 237.498)" fill="#FF8C40" fill-opacity="0.7"/>
<rect width="9.41748" height="9.27158" transform="matrix(-0.73048 0.682934 -0.669537 -0.742778 111.32 281.784)" fill="#FF8C40" fill-opacity="0.7"/>
<rect width="9.41748" height="9.27158" transform="matrix(-0.73048 0.682934 -0.669537 -0.742778 98.1909 267.741)" fill="#FF8C40" fill-opacity="0.7"/>
<rect width="9.41748" height="9.27158" transform="matrix(-0.73048 0.682934 -0.669537 -0.742778 85.0621 253.698)" fill="#FF8C40" fill-opacity="0.7"/>
<rect width="9.41748" height="9.27158" transform="matrix(-0.73048 0.682934 -0.669537 -0.742778 71.6858 239.391)" fill="#FF8C40" fill-opacity="0.7"/>
<rect width="9.41748" height="9.27158" transform="matrix(-0.73048 0.682934 -0.669537 -0.742778 58.2792 225.051)" fill="#FF8C40" fill-opacity="0.7"/>
<rect width="9.41748" height="9.27158" transform="matrix(-0.73048 0.682934 -0.669537 -0.742778 124.634 269.337)" fill="#FF8C40" fill-opacity="0.7"/>
<rect width="9.41748" height="9.27158" transform="matrix(-0.73048 0.682934 -0.669537 -0.742778 111.505 255.294)" fill="#FF8C40" fill-opacity="0.7"/>
<rect width="9.41748" height="9.27158" transform="matrix(-0.73048 0.682934 -0.669537 -0.742778 98.376 241.251)" fill="#FF8C40" fill-opacity="0.7"/>
<rect width="9.41748" height="9.27158" transform="matrix(-0.73048 0.682934 -0.669537 -0.742778 84.9998 226.944)" fill="#FF8C40" fill-opacity="0.7"/>
<rect width="9.41748" height="9.27158" transform="matrix(-0.73048 0.682934 -0.669537 -0.742778 71.5932 212.604)" fill="#FF8C40" fill-opacity="0.7"/>
<rect width="9.41748" height="9.27158" transform="matrix(-0.73048 0.682934 -0.669537 -0.742778 5.62097 249.568)" fill="#FF8C40" fill-opacity="0.7"/>
<rect width="9.41748" height="9.27158" transform="matrix(-0.73048 0.682934 -0.669537 -0.742778 18.9349 237.121)" fill="#FF8C40" fill-opacity="0.7"/>
<rect width="9.41748" height="9.27158" transform="matrix(-0.73048 0.682934 -0.669537 -0.742778 5.80615 223.078)" fill="#FF8C40" fill-opacity="0.7"/>
<rect width="9.41748" height="9.27158" transform="matrix(-0.73048 0.682934 -0.669537 -0.742778 32.2488 224.674)" fill="#FF8C40" fill-opacity="0.7"/>
<rect width="9.41748" height="9.27158" transform="matrix(-0.73048 0.682934 -0.669537 -0.742778 19.12 210.631)" fill="#FF8C40" fill-opacity="0.7"/>
<rect width="9.41748" height="9.27158" transform="matrix(-0.73048 0.682934 -0.669537 -0.742778 5.99127 196.588)" fill="#FF8C40" fill-opacity="0.7"/>
<rect width="9.41748" height="9.27158" transform="matrix(-0.73048 0.682934 -0.669537 -0.742778 45.5629 212.226)" fill="#FF8C40" fill-opacity="0.7"/>
<rect width="9.41748" height="9.27158" transform="matrix(-0.73048 0.682934 -0.669537 -0.742778 32.434 198.183)" fill="#FF8C40" fill-opacity="0.7"/>
<rect width="9.41748" height="9.27158" transform="matrix(-0.73048 0.682934 -0.669537 -0.742778 19.3052 184.141)" fill="#FF8C40" fill-opacity="0.7"/>
<rect width="9.41748" height="9.27158" transform="matrix(-0.73048 0.682934 -0.669537 -0.742778 5.92896 169.833)" fill="#FF8C40" fill-opacity="0.7"/>
<rect width="9.41748" height="9.27158" transform="matrix(-0.73048 0.682934 -0.669537 -0.742778 58.8768 199.779)" fill="#FF8C40" fill-opacity="0.7"/>
<rect width="9.41748" height="9.27158" transform="matrix(-0.73048 0.682934 -0.669537 -0.742778 45.748 185.736)" fill="#FF8C40" fill-opacity="0.7"/>
<rect width="9.41748" height="9.27158" transform="matrix(-0.73048 0.682934 -0.669537 -0.742778 32.6192 171.693)" fill="#FF8C40" fill-opacity="0.7"/>
<rect width="9.41748" height="9.27158" transform="matrix(-0.73048 0.682934 -0.669537 -0.742778 19.243 157.386)" fill="#FF8C40" fill-opacity="0.7"/>
<rect width="9.41748" height="9.27158" transform="matrix(-0.73048 0.682934 -0.669537 -0.742778 5.83636 143.046)" fill="#FF8C40" fill-opacity="0.7"/>
<rect width="9.41748" height="9.27158" transform="matrix(-0.73048 0.682934 -0.669537 -0.742778 70.621 188.568)" fill="#FF8C40" fill-opacity="0.7"/>
<rect width="9.41748" height="9.27158" transform="matrix(-0.73048 0.682934 -0.669537 -0.742778 57.4921 174.526)" fill="#FF8C40" fill-opacity="0.7"/>
<rect width="9.41748" height="9.27158" transform="matrix(-0.73048 0.682934 -0.669537 -0.742778 44.3634 160.483)" fill="#FF8C40" fill-opacity="0.7"/>
<rect width="9.41748" height="9.27158" transform="matrix(-0.73048 0.682934 -0.669537 -0.742778 30.9871 146.175)" fill="#FF8C40" fill-opacity="0.7"/>
<rect width="9.41748" height="9.27158" transform="matrix(-0.73048 0.682934 -0.669537 -0.742778 17.5805 131.835)" fill="#FF8C40" fill-opacity="0.7"/>
<rect width="9.41748" height="9.27158" transform="matrix(-0.73048 0.682934 -0.669537 -0.742778 83.9349 176.121)" fill="#FF8C40" fill-opacity="0.7"/>
<rect width="9.41748" height="9.27158" transform="matrix(-0.73048 0.682934 -0.669537 -0.742778 70.8062 162.078)" fill="#FF8C40" fill-opacity="0.7"/>
<rect width="9.41748" height="9.27158" transform="matrix(-0.73048 0.682934 -0.669537 -0.742778 57.6774 148.036)" fill="#FF8C40" fill-opacity="0.7"/>
<rect width="9.41748" height="9.27158" transform="matrix(-0.73048 0.682934 -0.669537 -0.742778 44.3011 133.728)" fill="#FF8C40" fill-opacity="0.7"/>
<rect width="9.41748" height="9.27158" transform="matrix(-0.73048 0.682934 -0.669537 -0.742778 30.8945 119.388)" fill="#FF8C40" fill-opacity="0.7"/>
<rect width="9.41748" height="9.27158" transform="matrix(-0.73048 0.682934 -0.669537 -0.742778 97.2488 163.674)" fill="#FF8C40" fill-opacity="0.7"/>
<rect width="9.41748" height="9.27158" transform="matrix(-0.73048 0.682934 -0.669537 -0.742778 84.12 149.631)" fill="#FF8C40" fill-opacity="0.7"/>
<rect width="9.41748" height="9.27158" transform="matrix(-0.73048 0.682934 -0.669537 -0.742778 70.9913 135.588)" fill="#FF8C40" fill-opacity="0.7"/>
<rect width="9.41748" height="9.27158" transform="matrix(-0.73048 0.682934 -0.669537 -0.742778 57.615 121.281)" fill="#FF8C40" fill-opacity="0.7"/>
<rect width="9.41748" height="9.27158" transform="matrix(-0.73048 0.682934 -0.669537 -0.742778 44.2084 106.941)" fill="#FF8C40" fill-opacity="0.7"/>
<rect width="9.41748" height="9.27158" transform="matrix(-0.73048 0.682934 -0.669537 -0.742778 110.563 151.226)" fill="#FF8C40" fill-opacity="0.7"/>
<rect width="9.41748" height="9.27158" transform="matrix(-0.73048 0.682934 -0.669537 -0.742778 97.434 137.183)" fill="#FF8C40" fill-opacity="0.7"/>
<rect width="9.41748" height="9.27158" transform="matrix(-0.73048 0.682934 -0.669537 -0.742778 84.3052 123.141)" fill="#FF8C40" fill-opacity="0.7"/>
<rect width="9.41748" height="9.27158" transform="matrix(-0.73048 0.682934 -0.669537 -0.742778 70.929 108.833)" fill="#FF8C40" fill-opacity="0.7"/>
<rect width="9.41748" height="9.27158" transform="matrix(-0.73048 0.682934 -0.669537 -0.742778 57.5224 94.4933)" fill="#FF8C40" fill-opacity="0.7"/>
<rect width="9.41748" height="9.27158" transform="matrix(-0.73048 0.682934 -0.669537 -0.742778 123.877 138.779)" fill="#FF8C40" fill-opacity="0.7"/>
<rect width="9.41748" height="9.27158" transform="matrix(-0.73048 0.682934 -0.669537 -0.742778 110.748 124.736)" fill="#FF8C40" fill-opacity="0.7"/>
<rect width="9.41748" height="9.27158" transform="matrix(-0.73048 0.682934 -0.669537 -0.742778 97.6192 110.693)" fill="#FF8C40" fill-opacity="0.7"/>
<rect width="9.41748" height="9.27158" transform="matrix(-0.73048 0.682934 -0.669537 -0.742778 84.243 96.3859)" fill="#FF8C40" fill-opacity="0.7"/>
<rect width="9.41748" height="9.27158" transform="matrix(-0.73048 0.682934 -0.669537 -0.742778 70.8364 82.0459)" fill="#FF8C40" fill-opacity="0.7"/>
<rect width="9.41748" height="9.27158" transform="matrix(-0.73048 0.682934 -0.669537 -0.742778 136.621 257.568)" fill="#FF8C40" fill-opacity="0.7"/>
<rect width="9.41748" height="9.27158" transform="matrix(-0.73048 0.682934 -0.669537 -0.742778 123.492 243.526)" fill="#FF8C40" fill-opacity="0.7"/>
<rect width="9.41748" height="9.27158" transform="matrix(-0.73048 0.682934 -0.669537 -0.742778 110.363 229.483)" fill="#FF8C40" fill-opacity="0.7"/>
<rect width="9.41748" height="9.27158" transform="matrix(-0.73048 0.682934 -0.669537 -0.742778 96.9871 215.175)" fill="#FF8C40" fill-opacity="0.7"/>
<rect width="9.41748" height="9.27158" transform="matrix(-0.73048 0.682934 -0.669537 -0.742778 83.5805 200.835)" fill="#FF8C40" fill-opacity="0.7"/>
<rect width="9.41748" height="9.27158" transform="matrix(-0.73048 0.682934 -0.669537 -0.742778 149.935 245.121)" fill="#FF8C40" fill-opacity="0.7"/>
<rect width="9.41748" height="9.27158" transform="matrix(-0.73048 0.682934 -0.669537 -0.742778 136.806 231.078)" fill="#FF8C40" fill-opacity="0.7"/>
<rect width="9.41748" height="9.27158" transform="matrix(-0.73048 0.682934 -0.669537 -0.742778 123.677 217.036)" fill="#FF8C40" fill-opacity="0.7"/>
<rect width="9.41748" height="9.27158" transform="matrix(-0.73048 0.682934 -0.669537 -0.742778 110.301 202.728)" fill="#FF8C40" fill-opacity="0.7"/>
<rect width="9.41748" height="9.27158" transform="matrix(-0.73048 0.682934 -0.669537 -0.742778 96.8945 188.388)" fill="#FF8C40" fill-opacity="0.7"/>
<rect width="9.41748" height="9.27158" transform="matrix(-0.73048 0.682934 -0.669537 -0.742778 163.249 232.674)" fill="#FF8C40" fill-opacity="0.7"/>
<rect width="9.41748" height="9.27158" transform="matrix(-0.73048 0.682934 -0.669537 -0.742778 150.12 218.631)" fill="#FF8C40" fill-opacity="0.7"/>
<rect width="9.41748" height="9.27158" transform="matrix(-0.73048 0.682934 -0.669537 -0.742778 136.991 204.588)" fill="#FF8C40" fill-opacity="0.7"/>
<rect width="9.41748" height="9.27158" transform="matrix(-0.73048 0.682934 -0.669537 -0.742778 123.615 190.281)" fill="#FF8C40" fill-opacity="0.7"/>
<rect width="9.41748" height="9.27158" transform="matrix(-0.73048 0.682934 -0.669537 -0.742778 110.208 175.941)" fill="#FF8C40" fill-opacity="0.7"/>
<rect width="9.41748" height="9.27158" transform="matrix(-0.73048 0.682934 -0.669537 -0.742778 176.563 220.226)" fill="#FF8C40" fill-opacity="0.7"/>
<rect width="9.41748" height="9.27158" transform="matrix(-0.73048 0.682934 -0.669537 -0.742778 163.434 206.183)" fill="#FF8C40" fill-opacity="0.7"/>
<rect width="9.41748" height="9.27158" transform="matrix(-0.73048 0.682934 -0.669537 -0.742778 150.305 192.141)" fill="#FF8C40" fill-opacity="0.7"/>
<rect width="9.41748" height="9.27158" transform="matrix(-0.73048 0.682934 -0.669537 -0.742778 136.929 177.833)" fill="#FF8C40" fill-opacity="0.7"/>
<rect width="9.41748" height="9.27158" transform="matrix(-0.73048 0.682934 -0.669537 -0.742778 123.522 163.493)" fill="#FF8C40" fill-opacity="0.7"/>
<rect width="9.41748" height="9.27158" transform="matrix(-0.73048 0.682934 -0.669537 -0.742778 189.877 207.779)" fill="#FF8C40" fill-opacity="0.7"/>
<rect width="9.41748" height="9.27158" transform="matrix(-0.73048 0.682934 -0.669537 -0.742778 176.748 193.736)" fill="#FF8C40" fill-opacity="0.7"/>
<rect width="9.41748" height="9.27158" transform="matrix(-0.73048 0.682934 -0.669537 -0.742778 163.619 179.693)" fill="#FF8C40" fill-opacity="0.7"/>
<rect width="9.41748" height="9.27158" transform="matrix(-0.73048 0.682934 -0.669537 -0.742778 150.243 165.386)" fill="#FF8C40" fill-opacity="0.7"/>
<rect width="9.41748" height="9.27158" transform="matrix(-0.73048 0.682934 -0.669537 -0.742778 136.836 151.046)" fill="#FF8C40" fill-opacity="0.7"/>
<rect width="9.41748" height="9.27158" transform="matrix(-0.722449 0.691424 -0.678172 -0.734903 6.24567 120.49)" fill="#FF8C40" fill-opacity="0.7"/>
<rect width="9.41748" height="9.27158" transform="matrix(-0.722449 0.691424 -0.678172 -0.734903 19.4132 107.887)" fill="#FF8C40" fill-opacity="0.7"/>
<rect width="9.41748" height="9.27158" transform="matrix(-0.722449 0.691424 -0.678172 -0.734903 6.12122 93.999)" fill="#FF8C40" fill-opacity="0.7"/>
<rect width="9.41748" height="9.27158" transform="matrix(-0.722449 0.691424 -0.678172 -0.734903 32.5808 95.2854)" fill="#FF8C40" fill-opacity="0.7"/>
<rect width="9.41748" height="9.27158" transform="matrix(-0.722449 0.691424 -0.678172 -0.734903 19.2888 81.397)" fill="#FF8C40" fill-opacity="0.7"/>
<rect width="9.41748" height="9.27158" transform="matrix(-0.722449 0.691424 -0.678172 -0.734903 5.99683 67.5085)" fill="#FF8C40" fill-opacity="0.7"/>
<rect width="9.41748" height="9.27158" transform="matrix(-0.722449 0.691424 -0.678172 -0.734903 45.7484 82.6833)" fill="#FF8C40" fill-opacity="0.7"/>
<rect width="9.41748" height="9.27158" transform="matrix(-0.722449 0.691424 -0.678172 -0.734903 32.4564 68.7949)" fill="#FF8C40" fill-opacity="0.7"/>
<rect width="9.41748" height="9.27158" transform="matrix(-0.722449 0.691424 -0.678172 -0.734903 19.1644 54.9065)" fill="#FF8C40" fill-opacity="0.7"/>
<rect width="9.41748" height="9.27158" transform="matrix(-0.722449 0.691424 -0.678172 -0.734903 5.62183 40.7562)" fill="#FF8C40" fill-opacity="0.7"/>
<rect width="9.41748" height="9.27158" transform="matrix(-0.722449 0.691424 -0.678172 -0.734903 58.916 70.0812)" fill="#FF8C40" fill-opacity="0.7"/>
<rect width="9.41748" height="9.27158" transform="matrix(-0.722449 0.691424 -0.678172 -0.734903 45.624 56.1927)" fill="#FF8C40" fill-opacity="0.7"/>
<rect width="9.41748" height="9.27158" transform="matrix(-0.722449 0.691424 -0.678172 -0.734903 32.332 42.3043)" fill="#FF8C40" fill-opacity="0.7"/>
<rect width="9.41748" height="9.27158" transform="matrix(-0.722449 0.691424 -0.678172 -0.734903 18.7895 28.1541)" fill="#FF8C40" fill-opacity="0.7"/>
<rect width="9.41748" height="9.27158" transform="matrix(-0.722449 0.691424 -0.678172 -0.734903 5.21619 13.9718)" fill="#FF8C40" fill-opacity="0.7"/>
</g>
<defs>
<clipPath id="clip0">
<rect x="212" y="389" width="212" height="389" transform="rotate(-180 212 389)" fill="white"/>
</clipPath>
</defs>
</svg>
