<svg width="402" height="2627" viewBox="0 0 402 2627" fill="none" xmlns="http://www.w3.org/2000/svg">
<ellipse cx="242.186" cy="2548.31" rx="8.73303" ry="8.37104" fill="#599CFF" fill-opacity="0.8"/>
<ellipse cx="299.824" cy="2548.31" rx="8.73303" ry="8.37104" fill="#599CFF" fill-opacity="0.8"/>
<ellipse cx="358.335" cy="2548.31" rx="8.73303" ry="8.37104" fill="#599CFF" fill-opacity="0.8"/>
<ellipse cx="358.335" cy="2618.63" rx="8.73303" ry="8.37104" fill="#599CFF" fill-opacity="0.8"/>
<ellipse cx="393.267" cy="2585.15" rx="8.73303" ry="8.37104" fill="#599CFF" fill-opacity="0.8"/>
<ellipse cx="334.756" cy="2585.15" rx="8.73303" ry="8.37104" fill="#599CFF" fill-opacity="0.8"/>
<ellipse cx="276.244" cy="2585.15" rx="8.73303" ry="8.37104" fill="#599CFF" fill-opacity="0.8"/>
<ellipse cx="299.824" cy="2618.63" rx="8.73303" ry="8.37104" fill="#599CFF" fill-opacity="0.8"/>
<ellipse cx="242.186" cy="2618.63" rx="8.73303" ry="8.37104" fill="#599CFF" fill-opacity="0.8"/>
<ellipse cx="217.733" cy="2585.14" rx="8.73303" ry="8.37104" fill="#599CFF" fill-opacity="0.8"/>
<ellipse cx="242.186" cy="2450.37" rx="8.73303" ry="8.37104" fill="#599CFF" fill-opacity="0.8"/>
<ellipse cx="299.824" cy="2450.37" rx="8.73303" ry="8.37104" fill="#599CFF" fill-opacity="0.8"/>
<ellipse cx="358.335" cy="2450.37" rx="8.73303" ry="8.37104" fill="#599CFF" fill-opacity="0.8"/>
<ellipse cx="358.335" cy="2520.69" rx="8.73303" ry="8.37104" fill="#599CFF" fill-opacity="0.8"/>
<ellipse cx="393.267" cy="2487.2" rx="8.73303" ry="8.37104" fill="#599CFF" fill-opacity="0.8"/>
<ellipse cx="334.756" cy="2487.2" rx="8.73303" ry="8.37104" fill="#599CFF" fill-opacity="0.8"/>
<ellipse cx="276.244" cy="2487.2" rx="8.73303" ry="8.37104" fill="#599CFF" fill-opacity="0.8"/>
<ellipse cx="299.824" cy="2520.69" rx="8.73303" ry="8.37104" fill="#599CFF" fill-opacity="0.8"/>
<ellipse cx="242.186" cy="2520.69" rx="8.73303" ry="8.37104" fill="#599CFF" fill-opacity="0.8"/>
<ellipse cx="217.733" cy="2487.2" rx="8.73303" ry="8.37104" fill="#599CFF" fill-opacity="0.8"/>
<rect x="65.4142" y="2425.38" width="65" height="65" transform="rotate(-45 65.4142 2425.38)" stroke="black" stroke-width="2"/>
<rect x="87" y="2424.38" width="67" height="67" transform="rotate(-45 87 2424.38)" fill="#FF8C40"/>
<g clip-path="url(#clip0)">
<line x1="157.074" y1="2476.75" x2="213.643" y2="2420.18" stroke="black" stroke-width="2"/>
<line x1="154.074" y1="2467.75" x2="210.643" y2="2411.18" stroke="black" stroke-width="2"/>
<line x1="150.074" y1="2460.75" x2="206.643" y2="2404.18" stroke="black" stroke-width="2"/>
<line x1="142.074" y1="2456.75" x2="198.643" y2="2400.18" stroke="black" stroke-width="2"/>
<line x1="136.074" y1="2450.75" x2="192.643" y2="2394.18" stroke="black" stroke-width="2"/>
<line x1="127.074" y1="2448.75" x2="183.643" y2="2392.18" stroke="black" stroke-width="2"/>
<line x1="121.074" y1="2443.75" x2="177.643" y2="2387.18" stroke="black" stroke-width="2"/>
<line x1="117.074" y1="2436.75" x2="173.643" y2="2380.18" stroke="black" stroke-width="2"/>
<line x1="111.074" y1="2431.75" x2="167.643" y2="2375.18" stroke="black" stroke-width="2"/>
</g>
<g clip-path="url(#clip1)">
<line x1="133.776" y1="1733.86" x2="197.775" y2="1889.86" stroke="black" stroke-width="6"/>
<line x1="118.776" y1="1736.86" x2="186.776" y2="1902.86" stroke="black" stroke-width="6"/>
<line x1="96.7737" y1="1724.86" x2="178.774" y2="1923.86" stroke="black" stroke-width="6"/>
<line x1="83.7667" y1="1733.84" x2="166.767" y2="1931.84" stroke="black" stroke-width="6"/>
<line x1="68.7705" y1="1736.85" x2="149.77" y2="1931.85" stroke="black" stroke-width="6"/>
<line x1="51.7705" y1="1736.85" x2="132.77" y2="1931.85" stroke="black" stroke-width="6"/>
<line x1="35.7705" y1="1736.85" x2="116.77" y2="1931.85" stroke="black" stroke-width="6"/>
<line x1="19.7705" y1="1736.85" x2="100.77" y2="1931.85" stroke="black" stroke-width="6"/>
<line x1="3.77049" y1="1736.85" x2="84.7705" y2="1931.85" stroke="black" stroke-width="6"/>
<line x1="-5.22951" y1="1749.85" x2="75.7705" y2="1944.85" stroke="black" stroke-width="6"/>
<line x1="151.772" y1="1739.85" x2="209.772" y2="1879.85" stroke="black" stroke-width="6"/>
<line x1="166.767" y1="1733.84" x2="220.767" y2="1862.84" stroke="black" stroke-width="6"/>
<line x1="178.779" y1="1724.87" x2="241.779" y2="1879.87" stroke="black" stroke-width="6"/>
</g>
<circle cx="163" cy="1652" r="10" fill="#333333"/>
<circle cx="163" cy="1696" r="10" fill="#333333"/>
<circle cx="163" cy="1738" r="10" fill="#333333"/>
<circle cx="163" cy="1780" r="10" fill="#599CFF"/>
<circle cx="163" cy="1822" r="10" fill="#599CFF"/>
<circle cx="218" cy="1822" r="10" fill="#599CFF"/>
<circle cx="163" cy="1568" r="10" fill="#599CFF"/>
<circle cx="218" cy="1568" r="10" fill="#599CFF"/>
<circle cx="163" cy="1608" r="10" fill="#599CFF"/>
<circle cx="218" cy="1738" r="11" stroke="#599CFF" stroke-width="2"/>
<circle cx="218" cy="1696" r="11" stroke="#599CFF" stroke-width="2"/>
<circle cx="218" cy="1653" r="11" stroke="#599CFF" stroke-width="2"/>
<circle cx="218" cy="1608" r="11" stroke="#599CFF" stroke-width="2"/>
<circle cx="218" cy="1781" r="11" stroke="#599CFF" stroke-width="2"/>
<path d="M135.711 621.07L121.712 657.075L84.5586 662.158L61.4034 631.237L75.4021 595.232L112.556 590.149L135.711 621.07Z" fill="#599CFF"/>
<path d="M129.994 603.912L152.463 633.918L138.879 668.857L102.892 673.781L80.4221 643.775L94.0063 608.836L129.994 603.912Z" stroke="black" stroke-width="2"/>
<circle cx="78.5" cy="620.5" r="2.5" fill="black"/>
<circle cx="97.5" cy="638.5" r="2.5" fill="black"/>
<circle cx="113.5" cy="659.5" r="2.5" fill="black"/>
<circle cx="124.5" cy="685.5" r="2.5" fill="black"/>
<circle cx="128.5" cy="711.5" r="2.5" fill="black"/>
<circle cx="128.5" cy="737.5" r="2.5" fill="black"/>
<circle cx="124.5" cy="765.5" r="2.5" fill="black"/>
<circle cx="113.5" cy="789.5" r="2.5" fill="black"/>
<circle cx="97.5" cy="812.5" r="2.5" fill="black"/>
<circle cx="77.5" cy="830.5" r="2.5" fill="black"/>
<circle cx="53.5" cy="843.5" r="2.5" fill="black"/>
<circle cx="27.5" cy="853.5" r="2.5" fill="black"/>
<circle cx="1.5" cy="855.5" r="2.5" fill="black"/>
<circle cx="2.5" cy="595.5" r="2.5" fill="black"/>
<circle cx="28.5" cy="597.5" r="2.5" fill="black"/>
<circle cx="53.5" cy="605.5" r="2.5" fill="black"/>
<ellipse cx="53.4348" cy="643.844" rx="2.5" ry="2.04716" transform="rotate(2.62069 53.4348 643.844)" fill="black"/>
<ellipse cx="71.7409" cy="659.437" rx="2.5" ry="2.04716" transform="rotate(2.62069 71.7409 659.437)" fill="black"/>
<ellipse cx="86.9379" cy="677.347" rx="2.5" ry="2.04716" transform="rotate(2.62069 86.9379 677.347)" fill="black"/>
<ellipse cx="96.9529" cy="699.118" rx="2.5" ry="2.04716" transform="rotate(2.62069 96.9529 699.118)" fill="black"/>
<ellipse cx="99.9753" cy="720.569" rx="2.5" ry="2.04716" transform="rotate(2.62069 99.9753 720.569)" fill="black"/>
<ellipse cx="99.0018" cy="741.837" rx="2.5" ry="2.04716" transform="rotate(2.62069 99.0018 741.837)" fill="black"/>
<ellipse cx="93.9576" cy="764.558" rx="2.5" ry="2.04716" transform="rotate(2.62069 93.9576 764.558)" fill="black"/>
<ellipse cx="82.0706" cy="783.688" rx="2.5" ry="2.04716" transform="rotate(2.62069 82.0706 783.688)" fill="black"/>
<ellipse cx="65.2261" cy="801.77" rx="2.5" ry="2.04716" transform="rotate(2.62069 65.2261 801.77)" fill="black"/>
<ellipse cx="44.5732" cy="815.58" rx="2.5" ry="2.04716" transform="rotate(2.62069 44.5732 815.58)" fill="black"/>
<ellipse cx="20.1115" cy="825.116" rx="2.5" ry="2.04716" transform="rotate(2.62069 20.1115 825.116)" fill="black"/>
<ellipse cx="4.34818" cy="622.744" rx="2.5" ry="2.04716" transform="rotate(2.62069 4.34818 622.744)" fill="black"/>
<ellipse cx="29.0226" cy="630.431" rx="2.5" ry="2.04716" transform="rotate(2.62069 29.0226 630.431)" fill="black"/>
<ellipse cx="28.4729" cy="662.564" rx="2.21558" ry="1.50582" fill="black"/>
<ellipse cx="45.3112" cy="673.406" rx="2.21558" ry="1.50582" fill="black"/>
<ellipse cx="59.491" cy="686.055" rx="2.21558" ry="1.50582" fill="black"/>
<ellipse cx="69.2395" cy="701.715" rx="2.21558" ry="1.50582" fill="black"/>
<ellipse cx="72.7844" cy="717.376" rx="2.21558" ry="1.50582" fill="black"/>
<ellipse cx="72.7844" cy="733.036" rx="2.21558" ry="1.50582" fill="black"/>
<ellipse cx="69.2395" cy="749.902" rx="2.21558" ry="1.50582" fill="black"/>
<ellipse cx="59.491" cy="764.357" rx="2.21558" ry="1.50582" fill="black"/>
<ellipse cx="45.3112" cy="778.211" rx="2.21558" ry="1.50582" fill="black"/>
<ellipse cx="27.5867" cy="789.053" rx="2.21558" ry="1.50582" fill="black"/>
<ellipse cx="6.31708" cy="796.883" rx="2.21558" ry="1.50582" fill="black"/>
<ellipse cx="6.31708" cy="653.529" rx="2.21558" ry="1.50582" fill="black"/>
<ellipse cx="7.61368" cy="677.491" rx="1.7803" ry="1.22642" fill="black"/>
<ellipse cx="21.1439" cy="686.321" rx="1.7803" ry="1.22642" fill="black"/>
<ellipse cx="32.5379" cy="696.623" rx="1.7803" ry="1.22642" fill="black"/>
<ellipse cx="40.3712" cy="709.378" rx="1.7803" ry="1.22642" fill="black"/>
<ellipse cx="43.2196" cy="722.132" rx="1.7803" ry="1.22642" fill="black"/>
<ellipse cx="43.2197" cy="734.887" rx="1.7803" ry="1.22642" fill="black"/>
<ellipse cx="40.3712" cy="748.623" rx="1.7803" ry="1.22642" fill="black"/>
<ellipse cx="32.5379" cy="760.396" rx="1.7803" ry="1.22642" fill="black"/>
<ellipse cx="21.1439" cy="771.679" rx="1.7803" ry="1.22642" fill="black"/>
<ellipse cx="6.90152" cy="780.509" rx="1.7803" ry="1.22642" fill="black"/>
<circle cx="19" cy="94" r="10" fill="#333333"/>
<circle cx="19" cy="138" r="10" fill="#333333"/>
<circle cx="19" cy="180" r="10" fill="#333333"/>
<circle cx="19" cy="222" r="10" fill="#599CFF"/>
<circle cx="19" cy="264" r="10" fill="#599CFF"/>
<circle cx="74" cy="264" r="10" fill="#599CFF"/>
<circle cx="19" cy="10" r="10" fill="#599CFF"/>
<circle cx="74" cy="10" r="10" fill="#599CFF"/>
<circle cx="19" cy="50" r="10" fill="#599CFF"/>
<circle cx="74" cy="180" r="11" stroke="#599CFF" stroke-width="2"/>
<circle cx="74" cy="138" r="11" stroke="#599CFF" stroke-width="2"/>
<circle cx="74" cy="95" r="11" stroke="#599CFF" stroke-width="2"/>
<circle cx="74" cy="50" r="11" stroke="#599CFF" stroke-width="2"/>
<circle cx="74" cy="223" r="11" stroke="#599CFF" stroke-width="2"/>
<defs>
<clipPath id="clip0">
<rect x="116.781" y="2424.46" width="67" height="67" transform="rotate(-45 116.781 2424.46)" fill="white"/>
</clipPath>
<clipPath id="clip1">
<rect x="38" y="1741" width="150" height="150" rx="75" fill="white"/>
</clipPath>
</defs>
</svg>
