<svg width="193" height="185" viewBox="0 0 193 185" fill="none" xmlns="http://www.w3.org/2000/svg">
<ellipse cx="33.1855" cy="106.312" rx="8.73303" ry="8.37104" fill="#599CFF" fill-opacity="0.8"/>
<ellipse cx="90.8235" cy="106.312" rx="8.73303" ry="8.37104" fill="#599CFF" fill-opacity="0.8"/>
<ellipse cx="149.335" cy="106.312" rx="8.73303" ry="8.37104" fill="#599CFF" fill-opacity="0.8"/>
<ellipse cx="149.335" cy="176.629" rx="8.73303" ry="8.37104" fill="#599CFF" fill-opacity="0.8"/>
<ellipse cx="184.267" cy="143.145" rx="8.73303" ry="8.37104" fill="#599CFF" fill-opacity="0.8"/>
<ellipse cx="125.756" cy="143.145" rx="8.73303" ry="8.37104" fill="#599CFF" fill-opacity="0.8"/>
<ellipse cx="67.2443" cy="143.145" rx="8.73303" ry="8.37104" fill="#599CFF" fill-opacity="0.8"/>
<ellipse cx="90.8235" cy="176.629" rx="8.73303" ry="8.37104" fill="#599CFF" fill-opacity="0.8"/>
<ellipse cx="33.1855" cy="176.629" rx="8.73303" ry="8.37104" fill="#599CFF" fill-opacity="0.8"/>
<ellipse cx="8.73303" cy="143.145" rx="8.73303" ry="8.37104" fill="#599CFF" fill-opacity="0.8"/>
<ellipse cx="33.1855" cy="8.37104" rx="8.73303" ry="8.37104" fill="#599CFF" fill-opacity="0.8"/>
<ellipse cx="90.8235" cy="8.37104" rx="8.73303" ry="8.37104" fill="#599CFF" fill-opacity="0.8"/>
<ellipse cx="149.335" cy="8.37104" rx="8.73303" ry="8.37104" fill="#599CFF" fill-opacity="0.8"/>
<ellipse cx="149.335" cy="78.6874" rx="8.73303" ry="8.37104" fill="#599CFF" fill-opacity="0.8"/>
<ellipse cx="184.267" cy="45.2036" rx="8.73303" ry="8.37104" fill="#599CFF" fill-opacity="0.8"/>
<ellipse cx="125.756" cy="45.2036" rx="8.73303" ry="8.37104" fill="#599CFF" fill-opacity="0.8"/>
<ellipse cx="67.2443" cy="45.2036" rx="8.73303" ry="8.37104" fill="#599CFF" fill-opacity="0.8"/>
<ellipse cx="90.8235" cy="78.6874" rx="8.73303" ry="8.37104" fill="#599CFF" fill-opacity="0.8"/>
<ellipse cx="33.1855" cy="78.6874" rx="8.73303" ry="8.37104" fill="#599CFF" fill-opacity="0.8"/>
<ellipse cx="8.73303" cy="45.2036" rx="8.73303" ry="8.37104" fill="#599CFF" fill-opacity="0.8"/>
</svg>
