<svg width="131" height="265" viewBox="0 0 131 265" fill="none" xmlns="http://www.w3.org/2000/svg">
<circle cx="78.5" cy="27.5" r="2.5" fill="black"/>
<circle cx="97.5" cy="45.5" r="2.5" fill="black"/>
<circle cx="113.5" cy="66.5" r="2.5" fill="black"/>
<circle cx="124.5" cy="92.5" r="2.5" fill="black"/>
<circle cx="128.5" cy="118.5" r="2.5" fill="black"/>
<circle cx="128.5" cy="144.5" r="2.5" fill="black"/>
<circle cx="124.5" cy="172.5" r="2.5" fill="black"/>
<circle cx="113.5" cy="196.5" r="2.5" fill="black"/>
<circle cx="97.5" cy="219.5" r="2.5" fill="black"/>
<circle cx="77.5" cy="237.5" r="2.5" fill="black"/>
<circle cx="53.5" cy="250.5" r="2.5" fill="black"/>
<circle cx="27.5" cy="260.5" r="2.5" fill="black"/>
<circle cx="1.5" cy="262.5" r="2.5" fill="black"/>
<circle cx="2.5" cy="2.5" r="2.5" fill="black"/>
<circle cx="28.5" cy="4.5" r="2.5" fill="black"/>
<circle cx="53.5" cy="12.5" r="2.5" fill="black"/>
<ellipse cx="53.4348" cy="50.8443" rx="2.5" ry="2.04716" transform="rotate(2.62069 53.4348 50.8443)" fill="black"/>
<ellipse cx="71.7409" cy="66.4372" rx="2.5" ry="2.04716" transform="rotate(2.62069 71.7409 66.4372)" fill="black"/>
<ellipse cx="86.9379" cy="84.3469" rx="2.5" ry="2.04716" transform="rotate(2.62069 86.9379 84.3469)" fill="black"/>
<ellipse cx="96.9529" cy="106.118" rx="2.5" ry="2.04716" transform="rotate(2.62069 96.9529 106.118)" fill="black"/>
<ellipse cx="99.9753" cy="127.569" rx="2.5" ry="2.04716" transform="rotate(2.62069 99.9753 127.569)" fill="black"/>
<ellipse cx="99.0018" cy="148.837" rx="2.5" ry="2.04716" transform="rotate(2.62069 99.0018 148.837)" fill="black"/>
<ellipse cx="93.9576" cy="171.558" rx="2.5" ry="2.04716" transform="rotate(2.62069 93.9576 171.558)" fill="black"/>
<ellipse cx="82.0706" cy="190.688" rx="2.5" ry="2.04716" transform="rotate(2.62069 82.0706 190.688)" fill="black"/>
<ellipse cx="65.2261" cy="208.77" rx="2.5" ry="2.04716" transform="rotate(2.62069 65.2261 208.77)" fill="black"/>
<ellipse cx="44.5732" cy="222.58" rx="2.5" ry="2.04716" transform="rotate(2.62069 44.5732 222.58)" fill="black"/>
<ellipse cx="20.1115" cy="232.116" rx="2.5" ry="2.04716" transform="rotate(2.62069 20.1115 232.116)" fill="black"/>
<ellipse cx="4.34818" cy="29.7438" rx="2.5" ry="2.04716" transform="rotate(2.62069 4.34818 29.7438)" fill="black"/>
<ellipse cx="29.0226" cy="37.4311" rx="2.5" ry="2.04716" transform="rotate(2.62069 29.0226 37.4311)" fill="black"/>
<ellipse cx="28.4729" cy="69.564" rx="2.21558" ry="1.50582" fill="black"/>
<ellipse cx="45.3112" cy="80.4061" rx="2.21558" ry="1.50582" fill="black"/>
<ellipse cx="59.491" cy="93.0549" rx="2.21558" ry="1.50582" fill="black"/>
<ellipse cx="69.2395" cy="108.715" rx="2.21558" ry="1.50582" fill="black"/>
<ellipse cx="72.7844" cy="124.376" rx="2.21558" ry="1.50582" fill="black"/>
<ellipse cx="72.7844" cy="140.036" rx="2.21558" ry="1.50582" fill="black"/>
<ellipse cx="69.2395" cy="156.902" rx="2.21558" ry="1.50582" fill="black"/>
<ellipse cx="59.491" cy="171.357" rx="2.21558" ry="1.50582" fill="black"/>
<ellipse cx="45.3112" cy="185.211" rx="2.21558" ry="1.50582" fill="black"/>
<ellipse cx="27.5867" cy="196.053" rx="2.21558" ry="1.50582" fill="black"/>
<ellipse cx="6.31708" cy="203.883" rx="2.21558" ry="1.50582" fill="black"/>
<ellipse cx="6.31708" cy="60.5291" rx="2.21558" ry="1.50582" fill="black"/>
<ellipse cx="7.61368" cy="84.4906" rx="1.7803" ry="1.22642" fill="black"/>
<ellipse cx="21.1439" cy="93.3209" rx="1.7803" ry="1.22642" fill="black"/>
<ellipse cx="32.5379" cy="103.623" rx="1.7803" ry="1.22642" fill="black"/>
<ellipse cx="40.3712" cy="116.378" rx="1.7803" ry="1.22642" fill="black"/>
<ellipse cx="43.2196" cy="129.132" rx="1.7803" ry="1.22642" fill="black"/>
<ellipse cx="43.2197" cy="141.887" rx="1.7803" ry="1.22642" fill="black"/>
<ellipse cx="40.3712" cy="155.623" rx="1.7803" ry="1.22642" fill="black"/>
<ellipse cx="32.5379" cy="167.396" rx="1.7803" ry="1.22642" fill="black"/>
<ellipse cx="21.1439" cy="178.679" rx="1.7803" ry="1.22642" fill="black"/>
<ellipse cx="6.90152" cy="187.509" rx="1.7803" ry="1.22642" fill="black"/>
</svg>
