<svg width="133" height="266" viewBox="0 0 133 266" fill="none" xmlns="http://www.w3.org/2000/svg">
<circle cx="53.6251" cy="238.094" r="2.5" transform="rotate(179.732 53.6251 238.094)" fill="black"/>
<circle cx="34.5411" cy="220.183" r="2.5" transform="rotate(179.732 34.5411 220.183)" fill="black"/>
<circle cx="18.443" cy="199.258" r="2.5" transform="rotate(179.732 18.443 199.258)" fill="black"/>
<circle cx="7.32159" cy="173.309" r="2.5" transform="rotate(179.732 7.32159 173.309)" fill="black"/>
<circle cx="3.20007" cy="147.328" r="2.5" transform="rotate(179.732 3.20007 147.328)" fill="black"/>
<circle cx="3.07849" cy="121.329" r="2.5" transform="rotate(179.732 3.07849 121.329)" fill="black"/>
<circle cx="6.9475" cy="93.3102" r="2.5" transform="rotate(179.732 6.9475 93.3102)" fill="black"/>
<circle cx="17.8352" cy="69.259" r="2.5" transform="rotate(179.732 17.8352 69.259)" fill="black"/>
<circle cx="33.7275" cy="46.1845" r="2.5" transform="rotate(179.732 33.7275 46.1845)" fill="black"/>
<circle cx="53.6431" cy="28.0912" r="2.5" transform="rotate(179.732 53.6431 28.0912)" fill="black"/>
<circle cx="77.582" cy="14.9791" r="2.5" transform="rotate(179.732 77.582 14.9791)" fill="black"/>
<circle cx="103.535" cy="4.85762" r="2.5" transform="rotate(179.732 103.535 4.85762)" fill="black"/>
<circle cx="129.525" cy="2.73607" r="2.5" transform="rotate(179.732 129.525 2.73607)" fill="black"/>
<circle cx="129.741" cy="262.738" r="2.5" transform="rotate(179.732 129.741 262.738)" fill="black"/>
<circle cx="103.732" cy="260.859" r="2.5" transform="rotate(179.732 103.732 260.859)" fill="black"/>
<circle cx="78.6949" cy="252.976" r="2.5" transform="rotate(179.732 78.6949 252.976)" fill="black"/>
<ellipse cx="78.5808" cy="214.632" rx="2.5" ry="2.04716" transform="rotate(-177.647 78.5808 214.632)" fill="black"/>
<ellipse cx="60.2019" cy="199.125" rx="2.5" ry="2.04716" transform="rotate(-177.647 60.2019 199.125)" fill="black"/>
<ellipse cx="44.9214" cy="181.287" rx="2.5" ry="2.04716" transform="rotate(-177.647 44.9214 181.287)" fill="black"/>
<ellipse cx="34.8047" cy="159.563" rx="2.5" ry="2.04716" transform="rotate(-177.647 34.8047 159.563)" fill="black"/>
<ellipse cx="31.682" cy="138.126" rx="2.5" ry="2.04716" transform="rotate(-177.647 31.682 138.126)" fill="black"/>
<ellipse cx="32.5561" cy="116.854" rx="2.5" ry="2.04716" transform="rotate(-177.647 32.5561 116.854)" fill="black"/>
<ellipse cx="37.4939" cy="94.109" rx="2.5" ry="2.04716" transform="rotate(-177.647 37.4939 94.109)" fill="black"/>
<ellipse cx="49.2914" cy="74.9244" rx="2.5" ry="2.04716" transform="rotate(-177.647 49.2914 74.9244)" fill="black"/>
<ellipse cx="66.0511" cy="56.7633" rx="2.5" ry="2.04716" transform="rotate(-177.647 66.0511 56.7633)" fill="black"/>
<ellipse cx="86.6393" cy="42.8574" rx="2.5" ry="2.04716" transform="rotate(-177.647 86.6393 42.8574)" fill="black"/>
<ellipse cx="111.056" cy="33.2064" rx="2.5" ry="2.04716" transform="rotate(-177.647 111.056 33.2064)" fill="black"/>
<ellipse cx="127.766" cy="235.503" rx="2.5" ry="2.04716" transform="rotate(-177.647 127.766 235.503)" fill="black"/>
<ellipse cx="103.056" cy="227.931" rx="2.5" ry="2.04716" transform="rotate(-177.647 103.056 227.931)" fill="black"/>
<ellipse cx="103.455" cy="195.796" rx="2.21558" ry="1.50582" transform="rotate(179.732 103.455 195.796)" fill="black"/>
<ellipse cx="86.566" cy="185.033" rx="2.21558" ry="1.50582" transform="rotate(179.732 86.566 185.033)" fill="black"/>
<ellipse cx="72.3273" cy="172.451" rx="2.21558" ry="1.50582" transform="rotate(179.732 72.3273 172.451)" fill="black"/>
<ellipse cx="62.5056" cy="156.836" rx="2.21558" ry="1.50582" transform="rotate(179.732 62.5056 156.836)" fill="black"/>
<ellipse cx="58.8876" cy="141.192" rx="2.21558" ry="1.50582" transform="rotate(179.732 58.8876 141.192)" fill="black"/>
<ellipse cx="58.8143" cy="125.532" rx="2.21558" ry="1.50582" transform="rotate(179.732 58.8143 125.532)" fill="black"/>
<ellipse cx="62.2803" cy="108.65" rx="2.21558" ry="1.50582" transform="rotate(179.732 62.2803 108.65)" fill="black"/>
<ellipse cx="71.9611" cy="94.1488" rx="2.21558" ry="1.50582" transform="rotate(179.732 71.9611 94.1488)" fill="black"/>
<ellipse cx="86.076" cy="80.2291" rx="2.21558" ry="1.50582" transform="rotate(179.732 86.076 80.2291)" fill="black"/>
<ellipse cx="103.75" cy="69.3046" rx="2.21558" ry="1.50582" transform="rotate(179.732 103.75 69.3046)" fill="black"/>
<ellipse cx="124.982" cy="61.3749" rx="2.21558" ry="1.50582" transform="rotate(179.732 124.982 61.3749)" fill="black"/>
<ellipse cx="125.653" cy="204.727" rx="2.21558" ry="1.50582" transform="rotate(179.732 125.653 204.727)" fill="black"/>
<ellipse cx="124.244" cy="180.772" rx="1.7803" ry="1.22642" transform="rotate(179.732 124.244 180.772)" fill="black"/>
<ellipse cx="110.673" cy="172.005" rx="1.7803" ry="1.22642" transform="rotate(179.732 110.673 172.005)" fill="black"/>
<ellipse cx="99.2307" cy="161.757" rx="1.7803" ry="1.22642" transform="rotate(179.732 99.2307 161.757)" fill="black"/>
<ellipse cx="91.3378" cy="149.039" rx="1.7803" ry="1.22642" transform="rotate(179.732 91.3378 149.039)" fill="black"/>
<ellipse cx="88.4297" cy="136.298" rx="1.7803" ry="1.22642" transform="rotate(179.732 88.4297 136.298)" fill="black"/>
<ellipse cx="88.37" cy="123.543" rx="1.7803" ry="1.22642" transform="rotate(179.732 88.37 123.543)" fill="black"/>
<ellipse cx="91.1543" cy="109.794" rx="1.7803" ry="1.22642" transform="rotate(179.732 91.1543 109.794)" fill="black"/>
<ellipse cx="98.9324" cy="97.9839" rx="1.7803" ry="1.22642" transform="rotate(179.732 98.9324 97.9839)" fill="black"/>
<ellipse cx="110.274" cy="86.6477" rx="1.7803" ry="1.22642" transform="rotate(179.732 110.274 86.6477)" fill="black"/>
<ellipse cx="124.475" cy="77.7511" rx="1.7803" ry="1.22642" transform="rotate(179.732 124.475 77.7511)" fill="black"/>
</svg>
