<svg width="451" height="231" viewBox="0 0 451 231" fill="none" xmlns="http://www.w3.org/2000/svg">
<circle cx="38" cy="137" r="10" fill="#599CFF" fill-opacity="0.7"/>
<circle cx="104" cy="137" r="10" fill="#599CFF" fill-opacity="0.7"/>
<circle cx="171" cy="137" r="10" fill="#599CFF" fill-opacity="0.7"/>
<circle cx="171" cy="221" r="10" fill="#599CFF" fill-opacity="0.7"/>
<circle cx="211" cy="181" r="10" fill="#599CFF" fill-opacity="0.7"/>
<circle cx="144" cy="181" r="10" fill="#599CFF" fill-opacity="0.7"/>
<circle cx="77" cy="181" r="10" fill="#599CFF" fill-opacity="0.7"/>
<circle cx="104" cy="221" r="10" fill="#599CFF" fill-opacity="0.7"/>
<circle cx="38" cy="221" r="10" fill="#599CFF" fill-opacity="0.7"/>
<circle cx="10" cy="181" r="10" fill="#599CFF" fill-opacity="0.7"/>
<circle cx="38" cy="52" r="10" fill="#599CFF" fill-opacity="0.7"/>
<circle cx="104" cy="52" r="10" fill="#599CFF" fill-opacity="0.7"/>
<circle cx="171" cy="52" r="10" fill="#599CFF" fill-opacity="0.7"/>
<circle cx="171" cy="136" r="10" fill="#599CFF" fill-opacity="0.7"/>
<circle cx="211" cy="96" r="10" fill="#599CFF" fill-opacity="0.7"/>
<circle cx="144" cy="96" r="10" fill="#599CFF" fill-opacity="0.7"/>
<circle cx="77" cy="96" r="10" fill="#599CFF" fill-opacity="0.7"/>
<circle cx="104" cy="136" r="10" fill="#599CFF" fill-opacity="0.7"/>
<circle cx="38" cy="136" r="10" fill="#599CFF" fill-opacity="0.7"/>
<circle cx="10" cy="96" r="10" fill="#599CFF" fill-opacity="0.7"/>
<circle cx="268" cy="94" r="10" fill="#599CFF" fill-opacity="0.7"/>
<circle cx="334" cy="94" r="10" fill="#599CFF" fill-opacity="0.7"/>
<circle cx="401" cy="94" r="10" fill="#599CFF" fill-opacity="0.7"/>
<circle cx="401" cy="178" r="10" fill="#599CFF" fill-opacity="0.7"/>
<circle cx="441" cy="138" r="10" fill="#599CFF" fill-opacity="0.7"/>
<circle cx="374" cy="138" r="10" fill="#599CFF" fill-opacity="0.7"/>
<circle cx="307" cy="138" r="10" fill="#599CFF" fill-opacity="0.7"/>
<circle cx="334" cy="178" r="10" fill="#599CFF" fill-opacity="0.7"/>
<circle cx="268" cy="178" r="10" fill="#599CFF" fill-opacity="0.7"/>
<circle cx="240" cy="138" r="10" fill="#599CFF" fill-opacity="0.7"/>
<circle cx="268" cy="10" r="10" fill="#599CFF" fill-opacity="0.7"/>
<circle cx="334" cy="10" r="10" fill="#599CFF" fill-opacity="0.7"/>
<circle cx="401" cy="10" r="10" fill="#599CFF" fill-opacity="0.7"/>
<circle cx="401" cy="94" r="10" fill="#599CFF" fill-opacity="0.7"/>
<circle cx="441" cy="54" r="10" fill="#599CFF" fill-opacity="0.7"/>
<circle cx="374" cy="54" r="10" fill="#599CFF" fill-opacity="0.7"/>
<circle cx="307" cy="54" r="10" fill="#599CFF" fill-opacity="0.7"/>
<circle cx="334" cy="94" r="10" fill="#599CFF" fill-opacity="0.7"/>
<circle cx="268" cy="94" r="10" fill="#599CFF" fill-opacity="0.7"/>
<circle cx="240" cy="54" r="10" fill="#599CFF" fill-opacity="0.7"/>
</svg>
