<svg width="252" height="144" viewBox="0 0 252 144" fill="none" xmlns="http://www.w3.org/2000/svg">
<path opacity="0.8" d="M25.8734 0.603421L4.31226 0.338319C1.02193 0.307131 -1.06195 4.23687 0.564308 7.42979L11.2182 28.3416C12.8482 31.5346 16.963 31.5852 18.6271 28.4352L29.5344 7.77286C31.1984 4.63453 29.1675 0.642406 25.8734 0.603421Z" fill="#FF8C40" fill-opacity="0.8"/>
<path opacity="0.8" d="M45.831 38.5132L24.2736 38.2442C20.9795 38.2052 18.8994 42.1428 20.5256 45.3396L31.1795 66.2516C32.8058 69.4445 36.9206 69.4952 38.5884 66.3412L49.4957 45.6983C51.156 42.5599 49.1213 38.5678 45.831 38.5132Z" fill="#FF8C40" fill-opacity="0.8"/>
<path opacity="0.8" d="M154.306 0.572277L132.749 0.307172C129.455 0.268186 127.374 4.20578 129.001 7.40264L139.655 28.3148C141.281 31.5077 145.396 31.5584 147.063 28.4044L157.971 7.74182C159.624 4.59564 157.589 0.615162 154.306 0.572277Z" fill="#FF8C40" fill-opacity="0.8"/>
<path opacity="0.8" d="M113.994 0.69581L92.4364 0.430707C89.1461 0.391721 87.0622 4.32928 88.6885 7.52221L99.3424 28.4342C100.972 31.631 105.087 31.6817 106.751 28.5277L117.659 7.86529C119.319 4.71134 117.288 0.719202 113.994 0.69581Z" fill="#FF8C40" fill-opacity="0.8"/>
<path opacity="0.8" d="M68.799 0.69581L47.2416 0.430707C43.9513 0.391721 41.8674 4.32928 43.4937 7.52221L54.1475 28.4342C55.7776 31.631 59.8924 31.6817 61.5564 28.5277L72.4637 7.86529C74.1278 4.71134 72.0931 0.719202 68.799 0.69581Z" fill="#FF8C40" fill-opacity="0.8"/>
<path opacity="0.8" d="M113.994 76.5945L92.4364 76.3294C89.1461 76.2904 87.0622 80.228 88.6885 83.4248L99.3424 104.337C100.972 107.53 105.087 107.58 106.751 104.426L117.659 83.764C119.319 80.6178 117.288 76.6374 113.994 76.5945Z" fill="#FF8C40" fill-opacity="0.8"/>
<path opacity="0.8" d="M69.9676 76.4504L48.4103 76.1853C45.1199 76.1464 43.036 80.0839 44.6623 83.2807L55.3162 104.192C56.9462 107.385 61.061 107.436 62.7251 104.282L73.6324 83.6199C75.2624 80.4854 73.2466 76.4933 69.9676 76.4504Z" fill="#FF8C40" fill-opacity="0.8"/>
<path opacity="0.8" d="M134.329 38.3887L112.772 38.1236C109.478 38.0846 107.398 42.0221 109.024 45.2189L119.678 66.1307C121.304 69.3236 125.419 69.3743 127.087 66.2204L137.994 45.5581C139.655 42.412 137.62 38.4316 134.329 38.3887Z" fill="#FF8C40" fill-opacity="0.8"/>
<path opacity="0.8" d="M90.2693 38.7783L68.712 38.5132C65.4178 38.4742 63.3377 42.4118 64.964 45.6087L75.6179 66.5208C77.2441 69.7138 81.3589 69.7645 83.0268 66.6105L93.9341 45.9479C95.5943 42.8017 93.5596 38.8212 90.2693 38.7783Z" fill="#FF8C40" fill-opacity="0.8"/>
<path opacity="0.8" d="M91.525 110.247L69.9865 109.206C66.7 109.046 64.4837 112.91 66.0041 116.161L75.9432 137.444C77.456 140.695 81.5708 140.894 83.3407 137.802L94.9288 117.553C96.7176 114.461 94.8191 110.399 91.525 110.247Z" fill="#FF8C40" fill-opacity="0.8"/>
<path opacity="0.8" d="M167.301 34.4899L188.858 34.755C192.149 34.7979 194.232 30.8564 192.606 27.6635L181.956 6.75141C180.33 3.55845 176.215 3.50777 174.547 6.65784L163.64 27.3204C161.976 30.4588 164.007 34.4509 167.301 34.4899Z" fill="#FF8C40" fill-opacity="0.8"/>
<path opacity="0.8" d="M207.012 106.224L228.569 106.489C231.859 106.532 233.943 102.59 232.317 99.3974L221.663 78.4853C220.037 75.2923 215.922 75.2417 214.254 78.3917L203.347 99.0543C201.687 102.193 203.718 106.185 207.012 106.224Z" fill="#FF8C40" fill-opacity="0.8"/>
<path opacity="0.8" d="M169.192 106.224L190.749 106.489C194.04 106.532 196.123 102.59 194.497 99.3974L183.843 78.4853C182.217 75.2923 178.102 75.2417 176.434 78.3917L165.527 99.0543C163.867 102.193 165.898 106.185 169.192 106.224Z" fill="#FF8C40" fill-opacity="0.8"/>
<path opacity="0.8" d="M127.59 107.393L149.147 107.658C152.438 107.701 154.522 103.76 152.895 100.567L142.241 79.6545C140.615 76.4615 136.5 76.4108 134.833 79.5609L123.925 100.223C122.265 103.362 124.296 107.354 127.59 107.393Z" fill="#FF8C40" fill-opacity="0.8"/>
<path opacity="0.8" d="M186.589 68.797L208.146 69.0622C211.437 69.105 213.521 65.1636 211.894 61.9707L201.24 41.0588C199.614 37.8658 195.499 37.8152 193.832 40.9652L182.924 61.6276C181.264 64.7659 183.295 68.7581 186.589 68.797Z" fill="#FF8C40" fill-opacity="0.8"/>
<path opacity="0.8" d="M147.635 70.3569L169.192 70.622C172.482 70.6649 174.566 66.7234 172.94 63.5305L162.286 42.6186C160.66 39.4256 156.545 39.375 154.877 42.525L143.97 63.1874C142.309 66.3257 144.34 70.3179 147.635 70.3569Z" fill="#FF8C40" fill-opacity="0.8"/>
<path opacity="0.8" d="M225.922 143.65L247.479 143.915C250.769 143.958 252.853 140.017 251.227 136.824L240.573 115.912C238.947 112.719 234.832 112.668 233.164 115.818L222.257 136.481C220.597 139.619 222.628 143.611 225.922 143.65Z" fill="#FF8C40" fill-opacity="0.8"/>
<path opacity="0.8" d="M185.833 143.65L207.39 143.915C210.68 143.958 212.764 140.017 211.138 136.824L200.484 115.912C198.858 112.719 194.743 112.668 193.075 115.818L182.168 136.481C180.508 139.619 182.539 143.611 185.833 143.65Z" fill="#FF8C40" fill-opacity="0.8"/>
<path opacity="0.8" d="M146.5 142.48L168.057 142.746C171.348 142.788 173.431 138.847 171.805 135.654L161.151 114.742C159.525 111.549 155.41 111.498 153.742 114.648L142.835 135.311C141.175 138.449 143.206 142.441 146.5 142.48Z" fill="#FF8C40" fill-opacity="0.8"/>
<path opacity="0.8" d="M104.898 143.65L126.455 143.915C129.746 143.958 131.83 140.017 130.203 136.824L119.55 115.912C117.923 112.719 113.808 112.668 112.141 115.818L101.233 136.481C99.573 139.619 101.604 143.611 104.898 143.65Z" fill="#FF8C40" fill-opacity="0.8"/>
</svg>
