<svg width="160" height="279" viewBox="0 0 160 279" fill="none" xmlns="http://www.w3.org/2000/svg">
<path d="M23.4118 237.791L37.242 201.721L74.3717 196.464L97.6713 227.277L83.8411 263.347L46.7114 268.604L23.4118 237.791Z" fill="#599CFF"/>
<path d="M29.2093 254.922L6.5996 225.021L20.0203 190.019L55.9844 184.928L78.5941 214.828L65.1734 249.83L29.2093 254.922Z" stroke="black" stroke-width="2"/>
<circle cx="80.6251" cy="238.094" r="2.5" transform="rotate(179.732 80.6251 238.094)" fill="black"/>
<circle cx="61.5411" cy="220.183" r="2.5" transform="rotate(179.732 61.5411 220.183)" fill="black"/>
<circle cx="45.4431" cy="199.258" r="2.5" transform="rotate(179.732 45.4431 199.258)" fill="black"/>
<circle cx="34.3216" cy="173.309" r="2.5" transform="rotate(179.732 34.3216 173.309)" fill="black"/>
<circle cx="30.2001" cy="147.328" r="2.5" transform="rotate(179.732 30.2001 147.328)" fill="black"/>
<circle cx="30.0785" cy="121.329" r="2.5" transform="rotate(179.732 30.0785 121.329)" fill="black"/>
<circle cx="33.9475" cy="93.3102" r="2.5" transform="rotate(179.732 33.9475 93.3102)" fill="black"/>
<circle cx="44.8352" cy="69.259" r="2.5" transform="rotate(179.732 44.8352 69.259)" fill="black"/>
<circle cx="60.7275" cy="46.1845" r="2.5" transform="rotate(179.732 60.7275 46.1845)" fill="black"/>
<circle cx="80.6431" cy="28.0912" r="2.5" transform="rotate(179.732 80.6431 28.0912)" fill="black"/>
<circle cx="104.582" cy="14.9791" r="2.5" transform="rotate(179.732 104.582 14.9791)" fill="black"/>
<circle cx="130.535" cy="4.85762" r="2.5" transform="rotate(179.732 130.535 4.85762)" fill="black"/>
<circle cx="156.525" cy="2.73607" r="2.5" transform="rotate(179.732 156.525 2.73607)" fill="black"/>
<circle cx="156.741" cy="262.738" r="2.5" transform="rotate(179.732 156.741 262.738)" fill="black"/>
<circle cx="130.732" cy="260.859" r="2.5" transform="rotate(179.732 130.732 260.859)" fill="black"/>
<circle cx="105.695" cy="252.976" r="2.5" transform="rotate(179.732 105.695 252.976)" fill="black"/>
<ellipse cx="105.581" cy="214.632" rx="2.5" ry="2.04716" transform="rotate(-177.647 105.581 214.632)" fill="black"/>
<ellipse cx="87.2019" cy="199.125" rx="2.5" ry="2.04716" transform="rotate(-177.647 87.2019 199.125)" fill="black"/>
<ellipse cx="71.9214" cy="181.287" rx="2.5" ry="2.04716" transform="rotate(-177.647 71.9214 181.287)" fill="black"/>
<ellipse cx="61.8047" cy="159.563" rx="2.5" ry="2.04716" transform="rotate(-177.647 61.8047 159.563)" fill="black"/>
<ellipse cx="58.682" cy="138.126" rx="2.5" ry="2.04716" transform="rotate(-177.647 58.682 138.126)" fill="black"/>
<ellipse cx="59.5561" cy="116.854" rx="2.5" ry="2.04716" transform="rotate(-177.647 59.5561 116.854)" fill="black"/>
<ellipse cx="64.4939" cy="94.109" rx="2.5" ry="2.04716" transform="rotate(-177.647 64.4939 94.109)" fill="black"/>
<ellipse cx="76.2914" cy="74.9244" rx="2.5" ry="2.04716" transform="rotate(-177.647 76.2914 74.9244)" fill="black"/>
<ellipse cx="93.0511" cy="56.7633" rx="2.5" ry="2.04716" transform="rotate(-177.647 93.0511 56.7633)" fill="black"/>
<ellipse cx="113.639" cy="42.8574" rx="2.5" ry="2.04716" transform="rotate(-177.647 113.639 42.8574)" fill="black"/>
<ellipse cx="138.056" cy="33.2064" rx="2.5" ry="2.04716" transform="rotate(-177.647 138.056 33.2064)" fill="black"/>
<ellipse cx="154.766" cy="235.503" rx="2.5" ry="2.04716" transform="rotate(-177.647 154.766 235.503)" fill="black"/>
<ellipse cx="130.056" cy="227.931" rx="2.5" ry="2.04716" transform="rotate(-177.647 130.056 227.931)" fill="black"/>
<ellipse cx="130.455" cy="195.796" rx="2.21558" ry="1.50582" transform="rotate(179.732 130.455 195.796)" fill="black"/>
<ellipse cx="113.566" cy="185.033" rx="2.21558" ry="1.50582" transform="rotate(179.732 113.566 185.033)" fill="black"/>
<ellipse cx="99.3273" cy="172.451" rx="2.21558" ry="1.50582" transform="rotate(179.732 99.3273 172.451)" fill="black"/>
<ellipse cx="89.5056" cy="156.836" rx="2.21558" ry="1.50582" transform="rotate(179.732 89.5056 156.836)" fill="black"/>
<ellipse cx="85.8876" cy="141.192" rx="2.21558" ry="1.50582" transform="rotate(179.732 85.8876 141.192)" fill="black"/>
<ellipse cx="85.8143" cy="125.532" rx="2.21558" ry="1.50582" transform="rotate(179.732 85.8143 125.532)" fill="black"/>
<ellipse cx="89.2803" cy="108.65" rx="2.21558" ry="1.50582" transform="rotate(179.732 89.2803 108.65)" fill="black"/>
<ellipse cx="98.9611" cy="94.1488" rx="2.21558" ry="1.50582" transform="rotate(179.732 98.9611 94.1488)" fill="black"/>
<ellipse cx="113.076" cy="80.2291" rx="2.21558" ry="1.50582" transform="rotate(179.732 113.076 80.2291)" fill="black"/>
<ellipse cx="130.75" cy="69.3046" rx="2.21558" ry="1.50582" transform="rotate(179.732 130.75 69.3046)" fill="black"/>
<ellipse cx="151.982" cy="61.3749" rx="2.21558" ry="1.50582" transform="rotate(179.732 151.982 61.3749)" fill="black"/>
<ellipse cx="152.653" cy="204.727" rx="2.21558" ry="1.50582" transform="rotate(179.732 152.653 204.727)" fill="black"/>
<ellipse cx="151.244" cy="180.772" rx="1.7803" ry="1.22642" transform="rotate(179.732 151.244 180.772)" fill="black"/>
<ellipse cx="137.673" cy="172.005" rx="1.7803" ry="1.22642" transform="rotate(179.732 137.673 172.005)" fill="black"/>
<ellipse cx="126.231" cy="161.757" rx="1.7803" ry="1.22642" transform="rotate(179.732 126.231 161.757)" fill="black"/>
<ellipse cx="118.338" cy="149.039" rx="1.7803" ry="1.22642" transform="rotate(179.732 118.338 149.039)" fill="black"/>
<ellipse cx="115.43" cy="136.298" rx="1.7803" ry="1.22642" transform="rotate(179.732 115.43 136.298)" fill="black"/>
<ellipse cx="115.37" cy="123.543" rx="1.7803" ry="1.22642" transform="rotate(179.732 115.37 123.543)" fill="black"/>
<ellipse cx="118.154" cy="109.794" rx="1.7803" ry="1.22642" transform="rotate(179.732 118.154 109.794)" fill="black"/>
<ellipse cx="125.932" cy="97.9839" rx="1.7803" ry="1.22642" transform="rotate(179.732 125.932 97.9839)" fill="black"/>
<ellipse cx="137.274" cy="86.6477" rx="1.7803" ry="1.22642" transform="rotate(179.732 137.274 86.6477)" fill="black"/>
<ellipse cx="151.475" cy="77.7511" rx="1.7803" ry="1.22642" transform="rotate(179.732 151.475 77.7511)" fill="black"/>
</svg>
