<svg width="236" height="77" viewBox="0 0 236 77" fill="none" xmlns="http://www.w3.org/2000/svg">
<circle cx="56" cy="67" r="10" transform="rotate(-90 56 67)" fill="#333333"/>
<circle cx="100" cy="67" r="10" transform="rotate(-90 100 67)" fill="#333333"/>
<circle cx="142" cy="67" r="10" transform="rotate(-90 142 67)" fill="#333333"/>
<circle cx="184" cy="67" r="10" transform="rotate(-90 184 67)" fill="#599CFF"/>
<circle cx="226" cy="67" r="10" transform="rotate(-90 226 67)" fill="#599CFF"/>
<circle cx="226" cy="12" r="10" transform="rotate(-90 226 12)" fill="#599CFF"/>
<circle cx="12" cy="67" r="10" transform="rotate(-90 12 67)" fill="#599CFF"/>
<circle cx="142" cy="12" r="11" transform="rotate(-90 142 12)" stroke="#599CFF" stroke-width="2"/>
<circle cx="100" cy="12" r="11" transform="rotate(-90 100 12)" stroke="#599CFF" stroke-width="2"/>
<circle cx="57" cy="12" r="11" transform="rotate(-90 57 12)" stroke="#599CFF" stroke-width="2"/>
<circle cx="12" cy="12" r="11" transform="rotate(-90 12 12)" stroke="#599CFF" stroke-width="2"/>
<circle cx="185" cy="12" r="11" transform="rotate(-90 185 12)" stroke="#599CFF" stroke-width="2"/>
</svg>
