<svg width="77" height="280" viewBox="0 0 77 280" fill="none" xmlns="http://www.w3.org/2000/svg">
<ellipse cx="10" cy="96.0584" rx="10" ry="10.219" fill="#333333"/>
<ellipse cx="10" cy="141.022" rx="10" ry="10.219" fill="#333333"/>
<ellipse cx="10" cy="183.942" rx="10" ry="10.219" fill="#333333"/>
<ellipse cx="10" cy="226.861" rx="10" ry="10.219" fill="#FF8C40"/>
<ellipse cx="10" cy="269.781" rx="10" ry="10.219" fill="#FF8C40"/>
<ellipse cx="65" cy="269.781" rx="10" ry="10.219" fill="#FF8C40"/>
<ellipse cx="10" cy="10.219" rx="10" ry="10.219" fill="#FF8C40"/>
<ellipse cx="65" cy="10.219" rx="10" ry="10.219" fill="#FF8C40"/>
<ellipse cx="10" cy="51.0949" rx="10" ry="10.219" fill="#FF8C40"/>
<path d="M65 195.161C71.0954 195.161 76 190.117 76 183.942C76 177.766 71.0954 172.723 65 172.723C58.9046 172.723 54 177.766 54 183.942C54 190.117 58.9046 195.161 65 195.161Z" stroke="#FF8C40" stroke-width="2"/>
<path d="M65 152.241C71.0954 152.241 76 147.197 76 141.022C76 134.846 71.0954 129.803 65 129.803C58.9046 129.803 54 134.846 54 141.022C54 147.197 58.9046 152.241 65 152.241Z" stroke="#FF8C40" stroke-width="2"/>
<path d="M65 108.299C71.0954 108.299 76 103.256 76 97.0803C76 90.9048 71.0954 85.8613 65 85.8613C58.9046 85.8613 54 90.9048 54 97.0803C54 103.256 58.9046 108.299 65 108.299Z" stroke="#FF8C40" stroke-width="2"/>
<path d="M65 62.3139C71.0954 62.3139 76 57.2704 76 51.0949C76 44.9194 71.0954 39.8759 65 39.8759C58.9046 39.8759 54 44.9194 54 51.0949C54 57.2704 58.9046 62.3139 65 62.3139Z" stroke="#FF8C40" stroke-width="2"/>
<path d="M65 239.102C71.0954 239.102 76 234.059 76 227.883C76 221.708 71.0954 216.664 65 216.664C58.9046 216.664 54 221.708 54 227.883C54 234.059 58.9046 239.102 65 239.102Z" stroke="#FF8C40" stroke-width="2"/>
</svg>
